<svg id="american_express" xmlns="http://www.w3.org/2000/svg" viewBox="0 0 94.396 58.996">
  <defs>
    <style>
      .cls-1 {
        fill: #f2f2f2;
      }

      .cls-2 {
        fill: #fff;
      }

      .cls-3 {
        fill: #0078a9;
      }
    </style>
  </defs>
  <g id="Layer_1" data-name="Layer 1">
    <rect id="Rectangle_161" data-name="Rectangle 161" class="cls-1" width="94.396" height="58.996" rx="7.2"/>
    <path id="Path_212" data-name="Path 212" class="cls-2" d="M42.3,48.317v-.944l-.437.944H37.927l-.472-1.027V48.3H30.148l-.874-2.041H27.823L26.9,48.3H23.12V42.15L25.9,35.87H31.21l.747,1.779V35.9h6.5l1.429,2.994,1.4-3.007H61.829a3.5,3.5,0,0,1,1.783.481v-.481h5.17v.677a4.231,4.231,0,0,1,2.308-.677h9.125L81,37.675v-1.8h5.848l1.062,1.8v-1.8H93.5V48.33H87.749L86.4,46.145V48.3H79.266l-1.005-2.225h-1.4l-.94,2.225H71.6a5.572,5.572,0,0,1-2.819-.874V48.3h-8.6V45.411c0-.437-.323-.393-.323-.393h-.315v3.3Z" transform="translate(-13.016 -20.193)"/>
    <path id="Path_213" data-name="Path 213" class="cls-2" d="M57.19,70.53h11.3l1.63,1.844,1.669-1.844H80.48a4.025,4.025,0,0,1,1.591.437V70.53h7.74a3.96,3.96,0,0,1,1.822.489V70.53h9.947v.437a3.365,3.365,0,0,1,1.661-.437h6.477v.437a3.955,3.955,0,0,1,1.678-.437h5.087V82.273a2.8,2.8,0,0,1-2.05.756h-6.726v-.371a3.461,3.461,0,0,1-1.613.371H88.281V80c0-.3-.131-.354-.4-.354h-.245v3.387H82.071V79.664A3.737,3.737,0,0,1,80.423,80h-2v3.033H71.555L70,81.124l-1.669,1.905H57.19Z" transform="translate(-32.196 -39.706)"/>
    <path id="Path_214" data-name="Path 214" class="cls-3" d="M138.69,74.82h7.093v1.9h-4.921v1.656h4.781v1.678h-4.781V81.8h4.921v1.853H138.69Z" transform="translate(-78.077 -42.121)"/>
    <path id="Path_215" data-name="Path 215" class="cls-3" d="M180.253,78.276c2.666.14,2.889,1.468,2.889,2.889a2.586,2.586,0,0,1-2.784,2.548H175.8v-1.9h3.549c.6,0,1.5,0,1.5-.848,0-.4-.157-.66-.8-.73-.284-.039-1.337-.1-1.5-.1-2.408-.066-2.967-1.263-2.967-2.718a2.439,2.439,0,0,1,2.587-2.565h4.554v1.9h-3.335c-.756,0-1.578-.092-1.578.765,0,.542.406.651.918.7C178.911,78.219,180.091,78.28,180.253,78.276Z" transform="translate(-98.846 -42.137)"/>
    <path id="Path_216" data-name="Path 216" class="cls-3" d="M161.569,78.276c2.666.14,2.889,1.468,2.889,2.889a2.582,2.582,0,0,1-2.78,2.548H157.12v-1.9h3.553c.6,0,1.5,0,1.5-.848,0-.4-.162-.66-.8-.73-.288-.039-1.342-.1-1.5-.1-2.412-.066-2.967-1.263-2.967-2.718a2.439,2.439,0,0,1,2.583-2.565h4.554v1.9h-3.33c-.76,0-1.582-.087-1.582.787,0,.542.406.651.922.7C160.227,78.219,161.411,78.281,161.569,78.276Z" transform="translate(-88.33 -42.137)"/>
    <path id="Path_217" data-name="Path 217" class="cls-3" d="M81.607,74.837H73.993l-2.487,2.74L69.1,74.82H60.55v8.819h8.273l2.622-2.919,2.544,2.941h4.165V80.676h2.915c1.123,0,3.177-.039,3.177-3.138A2.47,2.47,0,0,0,81.607,74.837ZM67.691,81.8h-5V80.051h4.781V78.395H62.691V76.721h5.275l2.111,2.4Zm8.3,1.027-3.129-3.689,3.12-3.453Zm4.886-3.973h-2.7v-2.12h2.714a1.041,1.041,0,0,1,1.193,1.014,1.057,1.057,0,0,1-1.215,1.106Z" transform="translate(-34.087 -42.121)"/>
    <path id="Path_218" data-name="Path 218" class="cls-3" d="M124.014,79.672a2.408,2.408,0,0,0,1.5-2.443,2.331,2.331,0,0,0-2.6-2.369H117.27V83.7h2.185V80.6h2.836c.752,0,1.049.747,1.066,1.5l.057,1.617h2.111l-.07-1.836C125.456,80.463,125.041,79.79,124.014,79.672Zm-1.871-.913h-2.7v-2h2.71a1.041,1.041,0,0,1,1.193,1.014C123.345,78.365,123.03,78.758,122.143,78.758Z" transform="translate(-66.018 -42.143)"/>
    <rect id="Rectangle_162" data-name="Rectangle 162" class="cls-3" width="2.168" height="8.846" transform="translate(52.121 17.447)"/>
    <path id="Path_219" data-name="Path 219" class="cls-3" d="M78.63,39.94h7.089v1.9H80.8V43.5h4.781v1.674H80.8V46.92h4.921v1.857H78.63Z" transform="translate(-44.266 -22.485)"/>
    <path id="Path_220" data-name="Path 220" class="cls-3" d="M104.544,44.8a2.412,2.412,0,0,0,1.5-2.447,2.337,2.337,0,0,0-2.622-2.364H97.8v8.815h2.185V45.676h2.841c.747,0,1.045.747,1.066,1.495l.057,1.621h2.111l-.1-1.8C105.964,45.567,105.571,44.9,104.544,44.8Zm-1.875-.913h-2.7V41.861h2.727a1.044,1.044,0,0,1,1.193,1.018c-.013.612-.319.988-1.219.988Z" transform="translate(-55.058 -22.513)"/>
    <path id="Path_221" data-name="Path 221" class="cls-3" d="M42.4,39.94l-2.662,5.926L37.075,39.94h-3.4v8.509L29.895,39.94H27.023L23.16,48.777h2.286l.848-1.975h4.331l.874,1.975h4.37V42.221l2.9,6.556h1.971l2.972-6.451v6.451h2.185V39.94ZM27.1,44.9l1.311-3.09,1.346,3.09Z" transform="translate(-13.038 -22.485)"/>
    <path id="Path_222" data-name="Path 222" class="cls-3" d="M148.016,39.93v6.119l-3.658-6.119h-3.2v8.3l-3.7-8.3h-2.871L131.6,46.778s-1.263,0-1.394-.031c-.52-.109-1.337-.476-1.346-2.037v-.638c0-2.072,1.123-2.225,2.565-2.225h1.337V39.93h-2.832c-.983,0-3.129.752-3.2,4.37-.048,2.443,1.014,4.462,3.422,4.462h2.863l.826-1.962h4.37l.874,1.975h4.283V42.3l3.9,6.473h2.959V39.93Zm-13.3,4.965L136,41.8l1.333,3.09Z" transform="translate(-71.342 -22.479)"/>
  </g>
</svg>
