<svg xmlns="http://www.w3.org/2000/svg" viewBox="0 0 70.139 75.149">
  <defs>
    <style>
      .cls-1 {
        fill: #f58634;
      }

      .cls-2 {
        fill: #002f7d;
      }
    </style>
  </defs>
  <g id="breakdown" transform="translate(-16)">
    <g id="Group_12" data-name="Group 12" transform="translate(32.282 16.282)">
      <g id="Group_11" data-name="Group 11">
        <path id="Path_37" data-name="Path 37" class="cls-1" d="M136.282,104a6.27,6.27,0,0,0-6.262,6.262,3.762,3.762,0,0,1-3.757,3.757,6.262,6.262,0,0,0,0,12.525h5.01v-2.5h-5.01a3.757,3.757,0,1,1,0-7.515,6.27,6.27,0,0,0,6.262-6.262,3.762,3.762,0,0,1,3.757-3.757h3.757V104Z" transform="translate(-120 -104)"/>
      </g>
    </g>
    <g id="Group_14" data-name="Group 14" transform="translate(59.837)">
      <g id="Group_13" data-name="Group 13">
        <path id="Path_38" data-name="Path 38" class="cls-1" d="M322.3,9.394A9.4,9.4,0,0,0,312.909,0h-4.384V2.5h4.384a6.889,6.889,0,0,1,0,13.777h-4.384a1.252,1.252,0,0,0,0,2.5h3.131a4.384,4.384,0,0,1,0,8.767h-3.131A12.539,12.539,0,0,0,296,40.079h2.5a10.031,10.031,0,0,1,10.02-10.02h3.131a6.886,6.886,0,0,0,4.695-11.925A9.409,9.409,0,0,0,322.3,9.394Z" transform="translate(-296)"/>
      </g>
    </g>
    <g id="Group_16" data-name="Group 16" transform="translate(49.817 6.262)">
      <g id="Group_15" data-name="Group 15">
        <path id="Path_39" data-name="Path 39" class="cls-1" d="M248.282,40a6.27,6.27,0,0,0-6.262,6.262v6.262a3.762,3.762,0,0,1-3.757,3.757A6.27,6.27,0,0,0,232,62.545V73.817h2.5V62.545a3.762,3.762,0,0,1,3.757-3.757,6.27,6.27,0,0,0,6.262-6.262V46.262a3.762,3.762,0,0,1,3.757-3.757H255.8V40Z" transform="translate(-232 -40)"/>
      </g>
    </g>
    <g id="Group_18" data-name="Group 18" transform="translate(38.545 56.362)">
      <g id="Group_17" data-name="Group 17">
        <path id="Path_40" data-name="Path 40" class="cls-2" d="M178.787,360H161.252A1.253,1.253,0,0,0,160,361.253v5.01a1.253,1.253,0,0,0,1.252,1.253h17.535a1.253,1.253,0,0,0,1.252-1.253v-5.01A1.253,1.253,0,0,0,178.787,360Zm-1.253,5.01H162.5v-2.5h15.03Z" transform="translate(-160 -360)"/>
      </g>
    </g>
    <g id="Group_20" data-name="Group 20" transform="translate(16 15.094)">
      <g id="Group_19" data-name="Group 19" transform="translate(0)">
        <path id="Path_41" data-name="Path 41" class="cls-2" d="M81.129,120.769a4.389,4.389,0,0,0-4.384-4.384H73.614a1.252,1.252,0,0,0-1.074.608l-3.757,6.262a1.252,1.252,0,0,0-.016,1.262c.005.01.014.016.019.026l0,0L71.4,128.91H25.727l2.619-4.365,0,0c.006-.009.014-.016.019-.026a1.242,1.242,0,0,0,.134-.833l.01,0-2.631-14.908a6.3,6.3,0,0,1,4.187-7.029l8.879-2.959-.793-2.377-8.879,2.959a8.821,8.821,0,0,0-5.862,9.841l1.454,8.238-.273-.455a1.252,1.252,0,0,0-1.074-.608H20.384a4.384,4.384,0,1,0,0,8.767H25.06l-2.619,4.365.007,0a1.234,1.234,0,0,0-.175.475l-.594,4.452h0l-.424,3.181-1.487,11.154a1.205,1.205,0,0,0,.013.166h-.024v5.01a2.507,2.507,0,0,0,2.5,2.5h5.01a2.507,2.507,0,0,0,2.5-2.5V150.2H67.352v3.757a2.507,2.507,0,0,0,2.5,2.5h5.01a2.507,2.507,0,0,0,2.5-2.5v-5.01h-.024a1.205,1.205,0,0,0,.013-.166L74.856,130a1.233,1.233,0,0,0-.175-.475l.007,0-2.619-4.366h4.676A4.389,4.389,0,0,0,81.129,120.769Zm-60.745,1.879a1.879,1.879,0,0,1,0-3.757h2.422l2.255,3.757Zm3.5,14.249.076-.573,9.578,3.483v2.632l-10.147-1.845Zm3.392,17.063h-5.01V150.2h5.01ZM74.867,150.2v3.757h-5.01V150.2Zm-1.125-9.608-10.147,1.845v-2.632l9.578-3.483Zm-1.224-9.179.316,2.367-10.919,3.971a1.253,1.253,0,0,0-.824,1.177v5.01a1.252,1.252,0,0,0,1.476,1.232l11.507-2.092.616,4.617H22.44l.616-4.617,11.507,2.092a1.253,1.253,0,0,0,1.476-1.232v-5.01a1.254,1.254,0,0,0-.824-1.177L24.3,133.782l.315-2.367Zm-.449-8.767,2.255-3.757h2.422a1.879,1.879,0,0,1,0,3.757Z" transform="translate(-16 -96.41)"/>
      </g>
    </g>
    <g id="Group_22" data-name="Group 22" transform="translate(31.03 43.837)">
      <g id="Group_21" data-name="Group 21">
        <rect id="Rectangle_14" data-name="Rectangle 14" class="cls-2" width="6.262" height="2.505"/>
      </g>
    </g>
    <g id="Group_24" data-name="Group 24" transform="translate(41.05 43.837)">
      <g id="Group_23" data-name="Group 23">
        <rect id="Rectangle_15" data-name="Rectangle 15" class="cls-2" width="25.05" height="2.505"/>
      </g>
    </g>
  </g>
</svg>
