<svg id="diners_club_international" xmlns="http://www.w3.org/2000/svg" viewBox="0 0 94.396 58.996">
  <defs>
    <style>
      .cls-1 {
        fill: #f2f2f2;
      }

      .cls-2 {
        fill: #004a98;
      }

      .cls-3 {
        fill: #e8e8e8;
      }
    </style>
  </defs>
  <g id="Layer_1" data-name="Layer 1">
    <rect id="Rectangle_163" data-name="Rectangle 163" class="cls-1" width="94.396" height="58.996" rx="7.2"/>
    <path id="Path_223" data-name="Path 223" class="cls-2" d="M93.962,48.735c5.406.026,10.345-4.41,10.345-9.807A10.1,10.1,0,0,0,93.962,28.95H89.308a9.76,9.76,0,0,0-9.978,9.978,9.912,9.912,0,0,0,9.978,9.807Z" transform="translate(-44.66 -16.298)"/>
    <path id="Path_224" data-name="Path 224" class="cls-3" d="M92.6,45.234V34.517a5.738,5.738,0,0,1,0,10.716m-7.792-5.358a5.751,5.751,0,0,1,3.684-5.358V45.234a5.747,5.747,0,0,1-3.684-5.358m5.738-9.055A9.055,9.055,0,1,0,99.6,39.875a9.055,9.055,0,0,0-9.055-9.055" transform="translate(-45.876 -17.35)"/>
    <path id="Path_225" data-name="Path 225" class="cls-2" d="M53.624,81.863c0,.809.577.9,1.088.9,2.259,0,3-1.7,3-3.26a3.143,3.143,0,0,0-3.273-3.37,8.116,8.116,0,0,0-.817.044Zm-1.027-4.9c0-.94-.489-.874-.957-.874V75.81h3.042c2.71,0,4.182,1.809,4.182,3.662,0,1.036-.607,3.641-4.309,3.641H51.64v-.271c.625-.066.931-.083.957-.8Z" transform="translate(-29.071 -42.678)"/>
    <path id="Path_226" data-name="Path 226" class="cls-2" d="M70.123,76.547a.514.514,0,0,1,0-1.027.511.511,0,0,1,.511.5.52.52,0,0,1-.511.524M69,82.666h.2c.293,0,.5,0,.5-.345V79.484c0-.437-.153-.524-.542-.73v-.17c.489-.144,1.079-.345,1.119-.376a.35.35,0,0,1,.188-.052c.052,0,.074.066.074.149V82.32c0,.345.232.345.524.345h.175v.271H69Z" transform="translate(-38.844 -42.515)"/>
    <path id="Path_227" data-name="Path 227" class="cls-2" d="M75.543,82.94c0-.385-.118-.489-.607-.686v-.2a13.868,13.868,0,0,0,1.381-.5c.031,0,.061,0,.061.1v.677a3.006,3.006,0,0,1,1.809-.782c.874,0,1.2.647,1.2,1.464v2.7c0,.345.232.345.524.345H80.1v.271H77.864V86.06h.188c.293,0,.5,0,.5-.345v-2.71c0-.6-.367-.874-.961-.874a2.775,2.775,0,0,0-1.215.489v3.094c0,.345.232.345.524.345h.21v.271H74.87V86.06h.192c.293,0,.5,0,.5-.345Z" transform="translate(-42.149 -45.909)"/>
    <path id="Path_228" data-name="Path 228" class="cls-2" d="M89.432,83.107c.262,0,.288-.135.288-.262a.874.874,0,0,0-.909-.961c-.638,0-1.075.468-1.2,1.224Zm-1.853.332a2.539,2.539,0,0,0,0,.607,1.747,1.747,0,0,0,1.538,1.809,2.006,2.006,0,0,0,1.412-.7l.144.144a2.45,2.45,0,0,1-1.932,1.184,2.1,2.1,0,0,1-2-2.281c0-2.05,1.381-2.657,2.115-2.657A1.661,1.661,0,0,1,90.6,83.19a1.355,1.355,0,0,1,0,.188l-.1.061Z" transform="translate(-48.831 -45.906)"/>
    <path id="Path_229" data-name="Path 229" class="cls-2" d="M96.18,86.048h.28c.293,0,.5,0,.5-.345V82.762c0-.323-.389-.385-.546-.472v-.153c.765-.328,1.184-.6,1.281-.6s.092.031.092.135v.935h0c.258-.411.7-1.079,1.337-1.079a.573.573,0,0,1,.6.555.507.507,0,0,1-.472.524c-.323,0-.323-.249-.691-.249a.874.874,0,0,0-.765.874v2.461c0,.345.21.345.5.345h.586v.271H96.18Z" transform="translate(-54.146 -45.897)"/>
    <path id="Path_230" data-name="Path 230" class="cls-2" d="M105.17,84.876a1.377,1.377,0,0,0,1.311,1.276.734.734,0,0,0,.843-.743c0-1.232-2.281-.835-2.281-2.522a1.437,1.437,0,0,1,1.621-1.337,2.74,2.74,0,0,1,1.193.306l.074,1.062h-.24a1.075,1.075,0,0,0-1.141-1.031.734.734,0,0,0-.817.691c0,1.224,2.43.843,2.43,2.487,0,.691-.555,1.425-1.8,1.425a2.749,2.749,0,0,1-1.276-.358l-.087-1.2Z" transform="translate(-59.111 -45.909)"/>
    <path id="Path_231" data-name="Path 231" class="cls-2" d="M125.448,77.47h-.262a1.991,1.991,0,0,0-2.238-1.713A2.99,2.99,0,0,0,120,79.074a3.4,3.4,0,0,0,3.116,3.627,2.12,2.12,0,0,0,2.1-1.809l.24.061-.24,1.53a5.883,5.883,0,0,1-2.312.555A3.724,3.724,0,0,1,118.91,79.1a3.846,3.846,0,0,1,3.964-3.684,7.613,7.613,0,0,1,2.469.555Z" transform="translate(-66.942 -42.458)"/>
    <path id="Path_232" data-name="Path 232" class="cls-2" d="M134.73,81.939h.2c.3,0,.5,0,.5-.345V75.768c0-.682-.153-.7-.551-.817v-.166a6.59,6.59,0,0,0,1.075-.437,1,1,0,0,1,.227-.118c.066,0,.087.066.087.149v7.216c0,.345.227.345.524.345h.175v.271H134.73Z" transform="translate(-75.848 -41.789)"/>
    <path id="Path_233" data-name="Path 233" class="cls-2" d="M144.33,85.946c0,.188.114.2.293.2h.415v.223a9.859,9.859,0,0,0-1.5.323l-.052-.031V85.8a2.83,2.83,0,0,1-1.853.874,1.128,1.128,0,0,1-1.149-1.241V82.755c0-.271-.044-.533-.629-.586v-.2c.376,0,1.215-.074,1.35-.074s.114.074.114.3v2.7c0,.315,0,1.211.913,1.211a2.351,2.351,0,0,0,1.263-.634V82.664c0-.21-.5-.323-.874-.437v-.188c.94-.066,1.525-.149,1.63-.149s.087.074.087.188Z" transform="translate(-78.73 -46.101)"/>
    <path id="Path_234" data-name="Path 234" class="cls-2" d="M153.064,81.032a1.128,1.128,0,0,0,1.075,1.071c1.119,0,1.591-1.1,1.591-2.032A2.011,2.011,0,0,0,154.056,78a1.621,1.621,0,0,0-.992.507Zm0-2.845a2.622,2.622,0,0,1,1.56-.752,2.035,2.035,0,0,1,1.945,2.185,2.644,2.644,0,0,1-2.5,2.74,3.059,3.059,0,0,1-1.451-.367l-.315.24-.219-.114a12.534,12.534,0,0,0,.144-1.862V75.774c0-.682-.157-.7-.555-.817v-.166a6.494,6.494,0,0,0,1.079-.437.843.843,0,0,1,.232-.114c.061,0,.083.061.083.144Z" transform="translate(-85.384 -41.794)"/>
    <path id="Path_235" data-name="Path 235" class="cls-2" d="M51.61,101.507h.079c.205,0,.437-.031.437-.328V98.2c0-.3-.214-.323-.437-.323H51.61V97.7c.223,0,.564.026.843.026s.625-.026.874-.026v.175h-.061c-.205,0-.437.026-.437.323v2.981c0,.3.219.328.437.328h.079v.17c-.271,0-.616-.026-.9-.026s-.612.026-.835.026Z" transform="translate(-29.054 -55.001)"/>
    <path id="Path_236" data-name="Path 236" class="cls-2" d="M53.274,101.623V101.5h-.052c-.205,0-.437-.035-.437-.35V98.17c0-.315.24-.35.437-.35h.052V97.7H51.582v.1h.052c.205,0,.437.035.437.35v2.981c0,.315-.24.35-.437.35h-.052v.122h1.683m.026.048H51.53v-.219h.1c.205,0,.393,0,.4-.3V98.17c0-.28-.192-.3-.4-.3h-.1V97.65H53.3v.219h-.079c-.205,0-.4,0-.4.3v2.981c0,.28.192.3.4.3h.1v.219Z" transform="translate(-29.009 -54.973)"/>
    <path id="Path_237" data-name="Path 237" class="cls-2" d="M59.762,100.554h0V98.408a.468.468,0,0,0-.494-.533h-.127V97.7c.267,0,.529.026.8.026s.468-.026.7-.026v.175h-.083c-.24,0-.511.044-.511.721v2.592a3.99,3.99,0,0,0,.035.573h-.214L56.934,98.5v2.343c0,.5.1.669.533.669h.1v.17c-.245,0-.489-.026-.734-.026s-.52.026-.774.026v-.17h.079c.393,0,.511-.271.511-.725V98.386a.511.511,0,0,0-.52-.511h-.07V97.7c.214,0,.437.026.651.026s.337-.026.507-.026Z" transform="translate(-31.56 -55.001)"/>
    <path id="Path_238" data-name="Path 238" class="cls-2" d="M59.715,100.513Zm0,0Zm.114,1.18h.188a3.68,3.68,0,0,1-.031-.546V98.568c0-.682.284-.747.533-.747h.057V97.7H59.129v.1h.1a.5.5,0,0,1,.52.559v2.15h0l-2.53-2.863H56.083V97.8h.048a.538.538,0,0,1,.546.538v2.395c0,.437-.127.747-.538.747h-.057v.122h1.46v-.122h-.1c-.437,0-.559-.192-.559-.691V98.4Zm.214.052h-.236l-2.884-3.221v2.281c0,.5.079.634.507.642h.122v.219H56v-.219h.1c.376,0,.481-.245.485-.7V98.358a.489.489,0,0,0-.494-.489H56V97.65h1.2l2.5,2.815V98.38a.437.437,0,0,0-.472-.511h-.149V97.65h1.547v.219h-.109c-.24,0-.481.026-.485.7v2.592a3.391,3.391,0,0,0,.035.568v.031Z" transform="translate(-31.526 -54.973)"/>
    <path id="Path_239" data-name="Path 239" class="cls-2" d="M67.609,97.763c-.437,0-.437.1-.529.516h-.17c0-.157.052-.319.07-.485a3.5,3.5,0,0,0,.031-.481h.135c.048.17.188.162.345.162h2.954c.153,0,.293,0,.306-.175h.135a4.2,4.2,0,0,1-.061.463,3.641,3.641,0,0,0,0,.437l-.17.066c0-.21-.039-.546-.437-.546H69.27v3.029c0,.437.2.489.472.489h.109v.17c-.223,0-.621-.026-.927-.026s-.743.026-.966.026v-.17h.109c.315,0,.472-.031.472-.481V97.7Z" transform="translate(-37.668 -54.776)"/>
    <path id="Path_240" data-name="Path 240" class="cls-2" d="M69.817,101.35H67.925v-.219h.131c.315,0,.437,0,.437-.437V97.679h-.918v-.066h.957v3.059c0,.437-.184.5-.5.5h-.083v.122h1.84v-.122h-.083c-.275,0-.494-.066-.494-.511V97.6h.957c.38,0,.437.323.437.538l.122-.048v-.437a3.09,3.09,0,0,1,.061-.437H70.7c-.026.166-.188.175-.332.17H67.427c-.135,0-.28,0-.332-.162H67a3.243,3.243,0,0,1-.035.437,3.1,3.1,0,0,1-.061.437h.118c.079-.4.127-.524.551-.52v.048c-.437,0-.411.079-.507.5H66.85V98.1c.022-.157.052-.319.07-.481a3.558,3.558,0,0,0,.035-.481v-.026h.179c.039.144.144.144.288.149h2.989c.162,0,.275,0,.284-.153V97.08h.026l.157.026h0a4.09,4.09,0,0,1-.057.437c-.013.131,0,.306,0,.437h0l-.2.07V98.02c0-.214-.039-.524-.4-.524h-.961V100.5c0,.437.175.437.437.463h.135v.219Z" transform="translate(-37.634 -54.652)"/>
    <path id="Path_241" data-name="Path 241" class="cls-2" d="M76.39,101.507h.079c.205,0,.437-.031.437-.328V98.2c0-.3-.214-.323-.437-.323H76.39V97.7c.345,0,.94.026,1.412.026s1.071-.026,1.46-.026v.874l-.17.044c-.031-.367-.1-.664-.695-.664h-.778v1.49H78.3c.341,0,.437-.192.437-.5h.17v1.315l-.17.035c-.035-.341-.052-.564-.437-.564h-.677v1.311c0,.371.328.371.695.371.682,0,.983-.044,1.154-.695l.162.039c-.074.306-.144.607-.192.909-.367,0-1.023-.026-1.534-.026s-1.189.026-1.512.026Z" transform="translate(-43.005 -55.001)"/>
    <path id="Path_242" data-name="Path 242" class="cls-2" d="M79.359,101.623c.052-.288.118-.577.188-.874l-.114-.031c-.17.638-.5.695-1.171.691-.358,0-.717,0-.721-.4V99.665h.708c.4,0,.437.232.468.559l.122-.026V98.926h-.122c-.035.3-.127.5-.472.5h-.7V97.9h.813c.59,0,.691.3.717.66l.122-.035V97.7H76.37v.1h.057c.2,0,.437.035.437.35v2.981c0,.315-.245.35-.437.35H76.37v.122h3m0,.048H76.3v-.219h.1c.205,0,.393,0,.393-.3V98.17c0-.275-.188-.3-.393-.3h-.1V97.65h2.928v.892h0l-.2.052v-.026c-.035-.371-.083-.638-.669-.642h-.769v1.438h.656c.328,0,.385-.17.437-.476v-.022H78.9V100.2h0l-.2.039v-.026c-.039-.35-.039-.538-.437-.542h-.673v1.311c0,.35.3.345.673.35.682,0,.961-.039,1.128-.677v-.022h0l.184.044v.026c-.074.3-.144.6-.192.9h0Z" transform="translate(-42.954 -54.973)"/>
    <path id="Path_243" data-name="Path 243" class="cls-2" d="M85.616,99.623h.28c.568,0,.874-.214.874-.874a.774.774,0,0,0-.83-.83,2.243,2.243,0,0,0-.323,0Zm-.73-1.311c0-.437-.227-.437-.4-.437h-.1V97.7c.184,0,.533.026.874.026s.616-.026.918-.026c.717,0,1.355.2,1.355,1.005a1.071,1.071,0,0,1-.791,1l.97,1.455a.647.647,0,0,0,.555.345v.17c-.188,0-.371-.026-.559-.026s-.358.026-.533.026a16.2,16.2,0,0,1-1.184-1.844h-.376v1.215c0,.437.205.437.468.437h.1v.17c-.323,0-.651-.026-.979-.026s-.538.026-.826.026v-.17h.1c.21,0,.4-.1.4-.31Z" transform="translate(-47.497 -55.001)"/>
    <path id="Path_244" data-name="Path 244" class="cls-2" d="M85.9,99.573c.564,0,.848-.2.874-.874a.756.756,0,0,0-.813-.8,2.041,2.041,0,0,0-.3,0v1.648Zm-.28.048h-.026V97.873h0a2.324,2.324,0,0,1,.328,0,.8.8,0,0,1,.874.874c0,.677-.328.909-.9.909Zm0,.157H86a17.973,17.973,0,0,0,1.167,1.831h1.066v-.127a.647.647,0,0,1-.546-.35L86.7,99.652h.031a1.058,1.058,0,0,0,.778-.975c0-.791-.612-.975-1.311-.979H84.4v.1h.079c.175,0,.437.031.437.437v2.889c0,.227-.214.332-.437.332H84.4v.122h1.757v-.122h-.079c-.262,0-.494-.031-.494-.481V99.739Zm2.653,1.892H87.154a15.649,15.649,0,0,1-1.176-1.836h-.341v1.193c0,.437.179.437.437.437H86.2v.219H84.37v-.219H84.5c.205,0,.376-.092.38-.284v-2.9c0-.406-.205-.4-.38-.411H84.37V97.65h1.792c.717,0,1.377.2,1.377,1.027a1.088,1.088,0,0,1-.778,1.014l.957,1.429a.607.607,0,0,0,.538.332h0v.219Z" transform="translate(-47.497 -54.973)"/>
    <path id="Path_245" data-name="Path 245" class="cls-2" d="M97.4,100.554h0V98.408a.468.468,0,0,0-.494-.533h-.122V97.7c.267,0,.529.026.8.026s.463-.026.7-.026v.175h-.061c-.236,0-.507.044-.507.721v2.592a3.99,3.99,0,0,0,.035.573h-.214L94.594,98.5v2.343c0,.5.1.669.538.669h.1v.17c-.245,0-.489-.026-.734-.026s-.52.026-.774.026v-.17H93.8c.393,0,.511-.271.511-.725V98.386a.511.511,0,0,0-.516-.511H93.72V97.7c.214,0,.437.026.651.026s.337-.026.507-.026Z" transform="translate(-52.761 -55.001)"/>
    <path id="Path_246" data-name="Path 246" class="cls-2" d="M97.309,100.513Zm0,0Zm.114,1.18h.188a3.68,3.68,0,0,1-.031-.546V98.568c0-.682.288-.747.529-.747h.061V97.7H96.724v.1h.1a.5.5,0,0,1,.52.559v2.15h0L94.814,97.65H93.677V97.8h.052a.538.538,0,0,1,.542.538v2.395c0,.437-.131.747-.538.747h-.057v.122h1.46v-.122h-.07c-.437,0-.559-.192-.564-.691V98.4Zm.214.052h-.232l-2.889-3.221v2.281c0,.5.083.634.511.642h.118v.219H93.59v-.219h.1c.376,0,.485-.245.485-.7V98.358a.485.485,0,0,0-.489-.489h-.1V97.65h1.2l2.5,2.815V98.38a.437.437,0,0,0-.468-.511H96.68V97.65h1.525v.219H98.14c-.232,0-.472.026-.481.7v2.592a3.39,3.39,0,0,0,.035.568v.031Z" transform="translate(-52.687 -54.973)"/>
    <path id="Path_247" data-name="Path 247" class="cls-2" d="M105.891,98.149h0l-.529,1.613h1.062Zm-.83,2.522a2,2,0,0,0-.127.437c0,.17.24.2.437.2h.066v.17c-.227,0-.463-.026-.691-.026a4.71,4.71,0,0,0-.616.026v-.17h.035a.511.511,0,0,0,.494-.371l.913-2.622a4.672,4.672,0,0,0,.21-.708,3.1,3.1,0,0,0,.52-.24.083.083,0,0,1,.044,0h.039l.052.14,1.049,2.981c.066.2.135.406.21.581a.363.363,0,0,0,.376.227h.031v.17c-.253,0-.511-.026-.782-.026s-.564,0-.874.026v-.17h.061c.131,0,.354-.026.354-.166a1.774,1.774,0,0,0-.118-.411l-.219-.66h-1.311Z" transform="translate(-58.621 -54.812)"/>
    <path id="Path_248" data-name="Path 248" class="cls-2" d="M105.8,98.136Zm-.481,1.578h1l-.5-1.525Zm-.066.052.546-1.661h.031l.538,1.661Zm1.163,1.669H108v-.118h0a.389.389,0,0,1-.4-.24c-.074-.175-.14-.385-.21-.586l-1.045-2.976a.4.4,0,0,0-.052-.135h-.044a2.273,2.273,0,0,1-.507.232,4.694,4.694,0,0,1-.214.708l-.909,2.622a.542.542,0,0,1-.52.385h0v.118h1.254v-.118h-.039c-.184,0-.437,0-.437-.223a2.146,2.146,0,0,1,.127-.437h0l.188-.607h1.311l.227.677a1.8,1.8,0,0,1,.114.437c0,.175-.249.184-.376.188h-.039Zm1.613.052h-1.683v-.223h.087c.131,0,.328-.026.328-.135a1.98,1.98,0,0,0-.114-.4l-.219-.647h-1.254l-.175.577a2.186,2.186,0,0,0-.127.437c0,.14.214.17.4.17h.087v.223h-1.35v-.223h.057a.485.485,0,0,0,.472-.35l.913-2.622a7.308,7.308,0,0,0,.227-.721,3.173,3.173,0,0,0,.516-.245.183.183,0,0,1,.052,0,.07.07,0,0,1,.061.035l.052.144,1.049,2.976c.066.2.135.411.21.577a.328.328,0,0,0,.354.21h.057v.223Z" transform="translate(-58.554 -54.791)"/>
    <path id="Path_249" data-name="Path 249" class="cls-2" d="M112.864,97.763c-.437,0-.437.1-.533.516h-.17c.026-.157.052-.319.07-.485a3.5,3.5,0,0,0,.035-.481h.135c.048.17.188.162.341.162h2.937c.153,0,.3,0,.31-.175h.135a4.2,4.2,0,0,1-.061.463,3.641,3.641,0,0,0,0,.437l-.17.066c0-.21-.039-.546-.437-.546h-.935v3.029c0,.437.2.489.472.489h.109v.17c-.223,0-.621-.026-.927-.026s-.743.026-.966.026v-.17h.109c.315,0,.472-.031.472-.481V97.7Z" transform="translate(-63.142 -54.776)"/>
    <path id="Path_250" data-name="Path 250" class="cls-2" d="M115.077,101.378h-1.892v-.219h.131c.315,0,.437,0,.437-.437V97.707h-.9v-.066h.961V100.7c0,.437-.184.5-.5.5h-.083v.122h1.84V101.2h-.083c-.275,0-.494-.066-.5-.511V97.633h.961c.38,0,.437.323.437.538l.122-.048v-.437a3.862,3.862,0,0,1,.057-.437h-.087c0,.166-.184.175-.328.17h-2.963c-.135,0-.28,0-.332-.166h-.092a3.257,3.257,0,0,1-.035.463,2.553,2.553,0,0,1-.066.437h.122c.074-.4.127-.524.551-.52v.048c-.437,0-.437.079-.507.5h-.219v-.026c0-.162.052-.323.066-.485a2.967,2.967,0,0,0,.035-.481v-.026h.179c.044.144.149.144.293.149h2.963c.157,0,.275,0,.284-.153V97.13h.026l.166.026h0a3.191,3.191,0,0,1-.061.437,3.647,3.647,0,0,0,0,.437h0l-.2.07V98.07c0-.214-.039-.524-.4-.524h-.909v3.007c0,.437.175.437.437.463h.131v.219Z" transform="translate(-63.113 -54.68)"/>
    <path id="Path_251" data-name="Path 251" class="cls-2" d="M121.71,101.507h.079c.205,0,.437-.031.437-.328V98.2c0-.3-.214-.323-.437-.323h-.079V97.7c.223,0,.564.026.839.026s.629-.026.9-.026v.175h-.079c-.205,0-.437.026-.437.323v2.981c0,.3.219.328.437.328h.079v.17c-.271,0-.616-.026-.9-.026s-.612.026-.835.026Z" transform="translate(-68.518 -55.001)"/>
    <path id="Path_252" data-name="Path 252" class="cls-2" d="M123.379,101.623V101.5h-.052c-.2,0-.437-.035-.437-.35V98.17c0-.315.245-.35.437-.35h.052V97.7h-1.687v.1h.052c.2,0,.437.035.437.35v2.981c0,.315-.245.35-.437.35h-.052v.122h1.683m.026.048H121.64v-.219h.1c.205,0,.4,0,.4-.3V98.17c0-.275-.192-.3-.4-.3h-.1V97.65h1.787v.219h-.1c-.21,0-.4.026-.4.3v2.981c0,.28.188.3.4.3h.1v.219Z" transform="translate(-68.479 -54.973)"/>
    <path id="Path_253" data-name="Path 253" class="cls-2" d="M128.255,101.4c1.106,0,1.311-.975,1.311-1.8s-.437-1.84-1.394-1.84-1.311.874-1.311,1.652c0,1.018.468,1.993,1.39,1.993m-.087-3.894a2,2,0,0,1,2.185,1.962,2.085,2.085,0,0,1-2.15,2.185,2.01,2.01,0,0,1-2.128-2.041,2.072,2.072,0,0,1,2.1-2.1" transform="translate(-70.972 -54.894)"/>
    <path id="Path_254" data-name="Path 254" class="cls-2" d="M126.771,99.377c0-.769.3-1.674,1.311-1.674s1.416,1.027,1.42,1.862-.2,1.827-1.311,1.827v-.048c1.084,0,1.272-.948,1.272-1.779s-.437-1.814-1.368-1.814-1.267.874-1.267,1.626c0,1.014.463,1.967,1.364,1.967v.048c-.944,0-1.412-.992-1.416-2.015m-.8.2A2.107,2.107,0,0,1,128.1,97.45V97.5a2.045,2.045,0,0,0-2.076,2.076,1.989,1.989,0,0,0,2.107,2.015,2.063,2.063,0,0,0,2.128-2.155A1.969,1.969,0,0,0,128.1,97.5V97.45a2,2,0,0,1,2.185,1.989,2.12,2.12,0,0,1-2.185,2.185,2.045,2.045,0,0,1-2.155-2.067" transform="translate(-70.905 -54.86)"/>
    <path id="Path_255" data-name="Path 255" class="cls-2" d="M139.86,100.554h0V98.408a.468.468,0,0,0-.5-.533h-.122V97.7c.267,0,.529.026.8.026s.468-.026.7-.026v.175h-.083c-.24,0-.507.044-.507.721v2.592a3.443,3.443,0,0,0,.035.573h-.219L137.028,98.5v2.343c0,.5.1.669.538.669h.1v.17c-.245,0-.489-.026-.734-.026s-.52.026-.778.026v-.17h.083c.393,0,.511-.271.511-.725V98.386a.511.511,0,0,0-.516-.511h-.079V97.7c.219,0,.437.026.656.026s.337-.026.507-.026Z" transform="translate(-76.647 -55.001)"/>
    <path id="Path_256" data-name="Path 256" class="cls-2" d="M139.819,100.513Zm0,0Zm.114,1.18h.188a3.68,3.68,0,0,1-.031-.546V98.568c0-.686.288-.747.533-.747h.057V97.7h-1.447v.1h.1a.5.5,0,0,1,.52.559v2.15h0l-2.535-2.863h-1.136V97.8h.052a.538.538,0,0,1,.542.538v2.395c0,.437-.127.747-.538.747h-.057v.122h1.46v-.122h-.074c-.437,0-.555-.192-.555-.691V98.4Zm.219.052h-.236l-2.889-3.221v2.281c0,.5.083.634.507.638h.127v.223H136.1v-.223h.1c.376,0,.485-.24.489-.695V98.358a.489.489,0,0,0-.494-.489h-.1V97.65h1.206l2.5,2.815V98.38a.437.437,0,0,0-.472-.511h-.149V97.65h1.547v.219h-.109c-.236,0-.481.031-.485.7v2.592a3.391,3.391,0,0,0,.035.568v.031Z" transform="translate(-76.619 -54.973)"/>
    <path id="Path_257" data-name="Path 257" class="cls-2" d="M148.4,98.149h0l-.529,1.613h1.066Zm-.835,2.522a2.533,2.533,0,0,0-.122.437c0,.17.24.2.437.2h.061v.17c-.227,0-.463-.026-.691-.026a4.577,4.577,0,0,0-.612.026v-.17h.031a.52.52,0,0,0,.5-.371l.909-2.622a4.223,4.223,0,0,0,.21-.708,3.1,3.1,0,0,0,.52-.24.083.083,0,0,1,.044,0h.039l.052.14,1.045,2.981c.07.2.14.406.214.581a.363.363,0,0,0,.376.227h.035v.17c-.258,0-.516-.026-.787-.026s-.564,0-.874.026v-.17h.066c.131,0,.354-.026.354-.166a1.774,1.774,0,0,0-.118-.411l-.219-.66h-1.311Z" transform="translate(-82.553 -54.812)"/>
    <path id="Path_258" data-name="Path 258" class="cls-2" d="M148.33,98.136Zm-.481,1.578h1l-.5-1.521Zm-.07.052.546-1.661h.031l.538,1.661Zm1.163,1.674h1.591v-.118h0a.385.385,0,0,1-.4-.24c-.079-.175-.144-.385-.214-.586l-1.045-2.976a.5.5,0,0,0-.048-.135h-.052a2.382,2.382,0,0,1-.507.232,4.694,4.694,0,0,1-.205.7l-.909,2.622a.546.546,0,0,1-.52.385h0v.118h1.254v-.118h-.039c-.184,0-.437,0-.437-.223a2.145,2.145,0,0,1,.127-.437h0l.188-.607h1.311l.227.677a1.8,1.8,0,0,1,.114.437c0,.175-.249.184-.376.188h-.066Zm1.613.048h-1.661v-.219h.087c.131,0,.328-.031.328-.14a1.98,1.98,0,0,0-.114-.4l-.219-.647h-1.254l-.175.577a2.184,2.184,0,0,0-.122.437c0,.14.21.175.4.175h.087v.219h-1.35v-.219h.057a.5.5,0,0,0,.476-.354L148,98.293a7.3,7.3,0,0,0,.223-.721,2.776,2.776,0,0,0,.52-.245.153.153,0,0,1,.052,0,.066.066,0,0,1,.061.035.528.528,0,0,0,.052.144l1.049,2.976c.066.2.135.411.21.577a.341.341,0,0,0,.354.214h.057v.219Z" transform="translate(-82.507 -54.79)"/>
    <path id="Path_259" data-name="Path 259" class="cls-2" d="M157.407,101.118c0,.227.157.3.341.319a3.969,3.969,0,0,0,.752,0,.809.809,0,0,0,.546-.306,1.385,1.385,0,0,0,.175-.411h.166c-.061.323-.144.642-.214.97-.5,0-1-.026-1.5-.026s-1,.026-1.5.026v-.17h.079c.205,0,.437-.031.437-.385V98.2c0-.3-.223-.323-.437-.323h-.079V97.7c.3,0,.6.026.9.026s.573-.026.874-.026v.175H157.8c-.214,0-.385,0-.385.306Z" transform="translate(-87.918 -55.001)"/>
    <path id="Path_260" data-name="Path 260" class="cls-2" d="M159.1,101.623c.066-.31.14-.612.2-.918h-.118a1.219,1.219,0,0,1-.175.4.835.835,0,0,1-.564.319h-.756a.324.324,0,0,1-.363-.341V98.153c0-.319.2-.332.411-.332h.118V97.7H156.14v.1h.052c.2,0,.437.035.437.35v2.924c0,.367-.249.406-.437.406h-.052v.122H159.1m0,.048H156.07v-.219h.1c.205,0,.4,0,.4-.358V98.17c0-.275-.2-.3-.4-.3h-.1V97.65h1.822v.219h-.166c-.219,0-.358,0-.363.284v2.937c0,.21.14.271.319.293h.752a.787.787,0,0,0,.529-.3,1.312,1.312,0,0,0,.17-.4h.214v.031c-.061.328-.14.647-.21.97h0Z" transform="translate(-87.861 -54.973)"/>
  </g>
</svg>
