<svg xmlns="http://www.w3.org/2000/svg" viewBox="0 0 75.286 70.916">
  <defs>
    <style>
      .cls-1 {
        fill: #002f7d;
      }

      .cls-2 {
        fill: #f58634;
      }
    </style>
  </defs>
  <g id="Group_70" data-name="Group 70" transform="translate(-509 -1125)">
    <g id="Group_6" data-name="Group 6" transform="translate(509 1125)">
      <g id="Group_5" data-name="Group 5" transform="translate(0 0)">
        <path id="Path_9" data-name="Path 9" class="cls-1" d="M72.181,69.889H71.134a3.081,3.081,0,0,0,0-.444V13.556a3.1,3.1,0,0,0-3.105-3.105H37.688a3.1,3.1,0,0,0-3.1,3.105V36.621a12.047,12.047,0,0,0-7.1,4.9A12.189,12.189,0,0,0,25.747,51.7c1.277,4.9,1.437,11.391-1.207,14.088a5.518,5.518,0,0,1-5.571,1.047A6.192,6.192,0,0,1,14.3,63.289c-2.821-6.512,4.223-18.825,4.241-18.878.426-.639,10.238-15.88.213-24.84C18.349,19.145,8.679,8.925,1.209,9.918a1.386,1.386,0,1,0,.355,2.75,9.581,9.581,0,0,1,5.163,1.153l-1.987,2.4a3.1,3.1,0,0,0,.466,4.366l.066.052,6.671,5.323a3.069,3.069,0,0,0,1.934.674h.266a3.088,3.088,0,0,0,2.076-1.153l1.934-2.431c6,7.665-1.774,19.872-1.969,20.067-.319.55-7.771,13.591-4.436,21.291a8.872,8.872,0,0,0,6.618,5.039,11.992,11.992,0,0,0,2.732.337,7.221,7.221,0,0,0,5.323-2.111C29.97,63.963,29.686,56.4,28.3,51.046a9.35,9.35,0,0,1,6.245-11.622V69.446a3.085,3.085,0,0,0,0,.444h-.887a3.1,3.1,0,0,0-3.175,3.033c0,.024,0,.048,0,.072v4.666a3.1,3.1,0,0,0,3.1,3.106H72.181a3.105,3.105,0,0,0,3.105-3.105V72.994A3.105,3.105,0,0,0,72.181,69.889ZM16.113,21.4l-1.969,2.431a.443.443,0,0,1-.3.16.426.426,0,0,1-.319-.089L6.851,18.577a.444.444,0,0,1,0-.621l1.969-2.449a.443.443,0,0,1,.3-.16.426.426,0,0,1,.319.089l6.671,5.323a.426.426,0,0,1,.16.3A.443.443,0,0,1,16.113,21.4Zm21.1-7.842a.443.443,0,0,1,.444-.444H68.064a.443.443,0,0,1,.444.444v55.89a.443.443,0,0,1-.444.444H37.688a.444.444,0,0,1-.478-.407c0-.012,0-.025,0-.037V13.556ZM72.7,77.661a.443.443,0,0,1-.444.444H33.661a.443.443,0,0,1-.444-.444V72.994a.443.443,0,0,1,.444-.444h38.52a.444.444,0,0,1,.515.444Z" transform="translate(0 -9.85)"/>
      </g>
    </g>
    <g id="Group_8" data-name="Group 8" transform="translate(549.563 1132.484)">
      <g id="Group_7" data-name="Group 7" transform="translate(0 0)">
        <path id="Path_10" data-name="Path 10" class="cls-2" d="M204.379,43.6H186a3.1,3.1,0,0,0-3.1,3.1V65.1a3.1,3.1,0,0,0,3.1,3.105h18.382a3.1,3.1,0,0,0,3.1-3.105V46.7A3.105,3.105,0,0,0,204.379,43.6Zm.444,21.522a.444.444,0,0,1-.444.426H186a.443.443,0,0,1-.444-.444V46.7a.443.443,0,0,1,.444-.444h18.382a.443.443,0,0,1,.444.444Z" transform="translate(-182.892 -43.597)"/>
      </g>
    </g>
    <g id="Group_10" data-name="Group 10" transform="translate(553.449 1162.115)">
      <g id="Group_9" data-name="Group 9" transform="translate(0 0)">
        <path id="Path_11" data-name="Path 11" class="cls-2" d="M215.937,177.2H201.743a1.331,1.331,0,0,0,0,2.661h14.194a1.331,1.331,0,1,0,0-2.661Z" transform="translate(-200.412 -177.198)"/>
      </g>
    </g>
  </g>
</svg>
