<svg xmlns="http://www.w3.org/2000/svg" viewBox="0 0 108.261 68.352">
  <defs>
    <style>
      .cls-1 {
        fill: #002f7d;
      }

      .cls-2 {
        fill: #f58634;
      }
    </style>
  </defs>
  <g id="Group_65" data-name="Group 65" transform="translate(-1330 -1089.651)">
    <path id="gift" class="cls-1" d="M70.833,14.672H51.871A8.7,8.7,0,0,0,38.6,3.542L35.08,7.057,31.565,3.542A8.7,8.7,0,0,0,18.29,14.672H0v17.4H6.213V69.35H65.862V32.07h4.971ZM40.352,5.3a6.213,6.213,0,0,1,8.787,8.787l-.587.587H30.979l5.858-5.858h0ZM21.021,14.086A6.213,6.213,0,1,1,29.808,5.3l3.514,3.516L28.93,13.207a7.653,7.653,0,0,0-.722.856c-.067.091-.133.189-.2.285s-.153.208-.224.323H21.608ZM2.485,29.585V17.158H34.8V29.585H2.485ZM34.8,32.07V46.982H8.7V32.07H34.8ZM8.7,49.468H34.8v17.4H8.7Zm28.582,17.4v-17.4h26.1v17.4Zm26.1-19.883H37.28V32.07h26.1Zm4.971-17.4H37.28V17.158H68.348Z" transform="translate(1330 1088.653)"/>
    <path id="gift-2" data-name="gift" class="cls-2" d="M39.689,8.66H29.064a4.872,4.872,0,0,0-7.439-6.237l-1.97,1.97-1.969-1.97A4.873,4.873,0,0,0,10.248,8.66H0v9.748H3.482V39.3H36.9V18.408h2.785ZM22.61,3.408a3.482,3.482,0,0,1,4.924,4.924l-.329.329H17.358l3.282-3.282h0ZM11.779,8.332A3.481,3.481,0,0,1,16.7,3.408l1.969,1.97L16.21,7.839a4.289,4.289,0,0,0-.4.48c-.038.051-.075.106-.111.159s-.086.116-.125.181H12.107ZM1.393,17.016V10.053H19.5v6.963H1.393Zm18.1,1.393v8.356H4.874V18.408H19.5ZM4.874,28.157H19.5v9.748H4.874Zm16.015,9.748V28.157H35.512v9.748ZM35.512,26.764H20.889V18.408H35.512ZM38.3,17.016H20.889V10.053H38.3Z" transform="translate(1398.572 1118.68)"/>
  </g>
</svg>
