<svg id="maestro" xmlns="http://www.w3.org/2000/svg" viewBox="0 0 94.396 58.996">
  <defs>
    <style>
      .cls-1 {
        fill: #f2f2f2;
      }

      .cls-2 {
        fill: #ec1c2e;
      }

      .cls-3 {
        fill: #0084c4;
      }

      .cls-4 {
        fill: #fff;
      }

      .cls-5 {
        fill: none;
        stroke: #fff;
        stroke-width: 0.21px;
      }
    </style>
  </defs>
  <g id="Layer_1" data-name="Layer 1">
    <rect id="Rectangle_164" data-name="Rectangle 164" class="cls-1" width="94.396" height="58.996" rx="7.2"/>
    <path id="Path_261" data-name="Path 261" class="cls-2" d="M111.89,62.618l.874-.026.861-.066.848-.1.835-.153.822-.188.809-.227.787-.267.774-.306.752-.341.73-.371.712-.411.686-.441.664-.472.642-.5.616-.533.59-.564.559-.59.533-.621.507-.638.472-.664.441-.691.406-.712.38-.73.337-.752.3-.774.267-.782.227-.809.192-.817.149-.843.1-.843.07-.865.022-.874-.022-.865-.07-.861-.1-.839-.149-.835-.192-.813-.227-.8-.267-.787-.3-.769-.337-.747-.38-.73-.406-.708-.441-.691-.472-.66-.507-.642-.533-.612-.559-.59-.59-.555-.616-.533-.642-.5-.664-.476-.686-.437-.712-.406-.73-.38-.752-.337-.774-.3-.787-.267-.809-.232-.822-.188-.835-.149-.848-.109-.861-.066-.874-.022-.874.022-.865.066-.843.109-.839.149-.822.188-.8.232-.791.267-.765.3-.752.337-.73.38-.708.406-.691.437-.66.476-.642.5-.612.533-.586.555-.564.59-.533.612-.5.642-.476.66-.441.691-.406.708-.371.73-.337.747-.3.769-.267.787-.227.8-.188.813-.149.835-.1.839-.07.861-.022.865.022.874.07.865.1.843.149.843.188.817.227.809.267.782.3.774.337.752.371.73.406.712.441.691.476.664.5.638.533.621.564.59.586.564.612.533.642.5.66.472.691.441.708.411.73.371.752.341.765.306.791.267.8.227.822.188.839.153.843.1.865.066Z" transform="translate(-53.453 -16.174)"/>
    <path id="Path_262" data-name="Path 262" class="cls-3" d="M60.43,62.618l.874-.026.861-.066.848-.1.835-.153.826-.188.8-.227.791-.267.769-.306.752-.341.73-.371.7-.411.691-.441.664-.472.638-.5.616-.533.59-.564.555-.59.533-.621.5-.638.472-.664.441-.691.406-.712L75.7,53l.337-.752.3-.774.267-.782.223-.809.192-.817.149-.843.1-.843.066-.865.022-.874-.022-.865-.066-.861-.1-.839-.149-.835-.192-.813-.223-.8-.267-.787-.3-.769-.337-.747-.376-.73-.406-.708-.441-.691-.472-.66-.5-.642-.533-.612-.555-.59-.59-.555-.616-.533-.638-.5-.664-.476-.691-.437-.7-.406-.73-.38-.752-.337-.769-.3-.791-.267-.8-.232-.826-.188-.835-.149-.848-.109-.861-.066-.874-.022-.874.022-.865.066-.843.109-.835.149-.826.188-.809.232-.782.267-.774.3-.752.337-.73.38-.712.406-.686.437-.669.476-.638.5-.621.533-.586.555-.559.59-.538.612-.5.642-.476.66-.437.691-.406.708-.38.73-.341.747-.3.769-.267.787-.227.8-.188.813-.149.835-.109.839-.066.861-.022.865.022.874.066.865.109.843.149.843.188.817.227.809.267.782.3.774.341.752.38.73.406.712.437.691.476.664.5.638.538.621.559.59.586.564.621.533.638.5.669.472.686.441.712.411.73.371.752.341.774.306.782.267.809.227.826.188.835.153.843.1.865.066Z" transform="translate(-24.466 -16.174)"/>
    <path id="Path_263" data-name="Path 263" class="cls-2" d="M103.22,42.278h8.592V41.33H104.05Z" transform="translate(-58.109 -23.267)"/>
    <path id="Path_264" data-name="Path 264" class="cls-2" d="M100.14,46.87h9.938v-.94h-9.34Z" transform="translate(-56.375 -25.857)"/>
    <path id="Path_265" data-name="Path 265" class="cls-2" d="M97.83,51.528h10.948V50.58H98.293Z" transform="translate(-55.074 -28.475)"/>
    <path id="Path_266" data-name="Path 266" class="cls-2" d="M96.33,56.12h11.6v-.94H96.618Z" transform="translate(-54.23 -31.064)"/>
    <path id="Path_267" data-name="Path 267" class="cls-2" d="M95.35,60.708h12.032V59.76H95.52Z" transform="translate(-53.678 -33.643)"/>
    <path id="Path_268" data-name="Path 268" class="cls-2" d="M95.033,69.618h12.123V68.67H94.95Z" transform="translate(-53.453 -38.658)"/>
    <path id="Path_269" data-name="Path 269" class="cls-2" d="M95.585,74.468h11.831V73.52H95.41Z" transform="translate(-53.712 -41.389)"/>
    <path id="Path_270" data-name="Path 270" class="cls-2" d="M96.743,78.408H108V77.46H96.45Z" transform="translate(-54.298 -43.607)"/>
    <path id="Path_271" data-name="Path 271" class="cls-2" d="M98.489,83.2h10.4V82.25H98.03Z" transform="translate(-55.187 -46.304)"/>
    <path id="Path_272" data-name="Path 272" class="cls-2" d="M101.024,88.054h9.2V87.11H100.39Z" transform="translate(-56.516 -49.039)"/>
    <path id="Path_273" data-name="Path 273" class="cls-2" d="M104.24,92.714h7.6V91.77H103.41Z" transform="translate(-58.216 -51.663)"/>
    <path id="Path_274" data-name="Path 274" class="cls-2" d="M167.966,90.921l-.031-.035-.035-.026h-.551v.691h.149v-.323h.135l.17.284h.144l-.205-.284h.17v-.175Zm-.127.127v.031h-.3v-.157h.31v.022h0v.066Z" transform="translate(-94.211 -51.151)"/>
    <path id="Path_275" data-name="Path 275" class="cls-2" d="M167.786,90.418h0l-.052-.149-.079-.14-.1-.122-.122-.1-.135-.079-.157-.048h-.328l-.153.048-.14.079-.122.1-.1.122-.083.14-.048.149h0v.337l.048.157.083.131.1.122.122.1.14.074.153.044h.328l.157-.044.135-.074.122-.1.1-.122.079-.131.052-.157v-.337Zm-.157.17v.144l-.039.131-.061.118-.079.1-.092.083-.114.061-.127.039h-.267l-.127-.039-.114-.061-.1-.083-.079-.1-.061-.118-.039-.131v-.319l.031-.1.061-.118.079-.1.1-.079.114-.057.127-.039h.267l.127.039.114.057.092.079.079.1.061.118.035.1v.144Z" transform="translate(-93.542 -50.543)"/>
    <path id="Path_276" data-name="Path 276" class="cls-4" d="M116.669,61.615l-.109,0-.114-.013-.1-.017-.1-.009-.1-.017-.1-.017-.109-.013-.109-.017-.118-.013-.122-.013-.14-.009-.149-.009h-.166l-.188.009-.205.009-.223.017-.157.026-.153.031-.14.044-.122.052-.109.061-.1.066-.083.079-.07.079-.048.087-.035.1-.017.092v.1l.026.1.035.109.061.1.079.1.162.144.188.118.227.1.236.083.253.083.258.083.271.1.253.109.24.135.227.162.2.205.166.245.127.3.087.358.026.42-.026.5-.061.371-.1.337-.131.3-.157.267-.192.236-.205.2-.227.17-.245.153-.258.122-.267.1-.271.083-.275.061-.271.044-.267.031-.258.013-.249.009H112.8l-.315-.009-.284,0-.258,0-.24-.013-.214-.009-.2-.017-.175-.022-.17-.022-.153-.031-.144-.026-.149-.039-.131-.039-.135-.039-.131-.048L109.96,68l.345-1.748.079.017.092.026.118.031.127.031.153.031.166.039.179.031.188.035.2.026.214.031.214.022.227.022.232.013.232,0h.236l.236-.013.227-.039.179-.061.14-.087.114-.1.083-.118.061-.122.048-.122.035-.122.017-.127-.009-.114-.026-.1-.044-.087-.061-.092-.079-.074-.092-.074-.109-.066-.114-.061-.131-.061-.14-.061-.144-.057-.144-.057-.157-.061-.153-.061-.162-.066-.157-.066-.157-.074-.153-.083-.153-.087-.144-.1-.131-.1-.131-.122-.114-.131-.109-.144-.092-.153-.079-.175-.066-.184L111,62.975l-.026-.223,0-.245.017-.262.013-.162.026-.157.022-.149.031-.144.035-.14.039-.14.048-.127.052-.127.057-.118.066-.118.074-.1.074-.1.087-.1.087-.1.1-.087.1-.083.114-.079.118-.074.127-.066.135-.066.14-.057.149-.057.157-.044.166-.044.179-.039.184-.035.188-.026.2-.022.21-.017.223-.013.232-.009h.533l.267,0,.24,0,.223.013.192.009.179.013.162.017.14.009.127.017.109.017.109.009.087.017.079.013.07.009.07.013.061,0Z" transform="translate(-61.903 -33.575)"/>
    <path id="Path_277" data-name="Path 277" class="cls-5" d="M116.669,61.615h0l-.109,0-.114-.013-.1-.017-.1-.009-.1-.017-.1-.017-.109-.013-.109-.017-.118-.013-.122-.013-.14-.009-.149-.009h-.166l-.188.009-.205.009-.223.017h0l-.157.026-.153.031-.14.044-.122.052-.109.061-.1.066-.083.079-.07.079-.048.087-.035.1-.017.092v.1l.026.1.035.109.061.1.079.1h0l.162.144.188.118.227.1.236.083.253.083.258.083.271.1.253.109.24.135.227.162.2.205.166.245.127.3.087.358.026.42-.026.5h0l-.061.371-.1.337-.131.3-.157.267-.192.236-.205.2-.227.17-.245.153-.258.122-.267.1-.271.083-.275.061-.271.044-.267.031-.258.013-.249.009H112.8l-.315-.009-.284,0-.258,0-.24-.013-.214-.009-.2-.017-.175-.022-.17-.022-.153-.031-.144-.026-.149-.039-.131-.039-.135-.039-.131-.048L109.96,68l.345-1.748h0l.079.017.092.026.118.031.127.031.153.031.166.039.179.031.188.035.2.026.214.031.214.022.227.022.232.013.232,0h.236l.236-.013h0l.227-.039.179-.061.14-.087.114-.1.083-.118.061-.122.048-.122.035-.122h0l.017-.127-.009-.114-.026-.1-.044-.087-.061-.092-.079-.074-.092-.074-.109-.066-.114-.061-.131-.061-.14-.061-.144-.057-.144-.057-.157-.061-.153-.061-.162-.066-.157-.066-.157-.074-.153-.083-.153-.087-.144-.1-.131-.1-.131-.122-.114-.131-.109-.144-.092-.153-.079-.175-.066-.184L111,62.975l-.026-.223,0-.245.017-.262h0l.013-.162.026-.157.022-.149.031-.144.035-.14.039-.14.048-.127.052-.127.057-.118.066-.118.074-.1.074-.1.087-.1.087-.1.1-.087.1-.083.114-.079.118-.074.127-.066.135-.066.14-.057.149-.057.157-.044.166-.044.179-.039.184-.035.188-.026.2-.022.21-.017.223-.013.232-.009h.533l.267,0,.24,0,.223.013.192.009.179.013.162.017.14.009.127.017.109.017.109.009.087.017.079.013.07.009.07.013.061,0-.4,1.8" transform="translate(-61.903 -33.575)"/>
    <path id="Path_278" data-name="Path 278" class="cls-4" d="M127.518,55.64h2.238l-.345,1.949h1.377l-.31,1.774-1.412-.026-.739,4.436-.013.1v.083l.013.07.022.07.035.057.035.052.052.044.057.035.066.035.07.026.074.022.079.013.092.017.087,0,.092,0h.275l.157-.009.144-.026.122-.026.092-.026.074-.031.044-.022.017,0-.227,1.521-.057.031-.061.031-.061.026-.061.031-.061.022-.07.022-.061.017-.083.026-.074.022-.087.017-.092.013-.1.017-.1.017-.109.017-.131.017-.135.017h-.6l-.319-.022-.284-.035-.249-.044-.219-.066-.184-.061-.153-.087-.131-.092-.1-.109-.083-.114-.061-.131-.039-.135-.022-.157-.009-.162.009-.179.017-.184.026-.2Z" transform="translate(-70.922 -31.323)"/>
    <path id="Path_279" data-name="Path 279" class="cls-5" d="M127.518,55.64h2.238l-.345,1.949h1.377l-.31,1.774-1.412-.026-.739,4.436h0l-.013.1v.083l.013.07.022.07.035.057.035.052.052.044.057.035.066.035.07.026.074.022.079.013.092.017.087,0,.092,0h.275l.157-.009.144-.026.122-.026.092-.026.074-.031.044-.022.017,0-.227,1.521h0l-.057.031-.061.031-.061.026-.061.031-.061.022-.07.022-.061.017-.083.026-.074.022-.087.017-.092.013-.1.017-.1.017-.109.017-.131.017-.135.017h-.6l-.319-.022-.284-.035-.249-.044-.219-.066-.184-.061-.153-.087-.131-.092-.1-.109-.083-.114-.061-.131-.039-.135-.022-.157-.009-.162.009-.179.017-.184.026-.2,1.486-8.706" transform="translate(-70.922 -31.323)"/>
    <path id="Path_280" data-name="Path 280" class="cls-4" d="M95.33,64.682l-.031.14,0,.14.013.149.031.149.044.149.07.149.079.144.092.14.1.135.122.127.127.114.144.1.149.087.157.074.166.052.166.044.2.026.2.026.205.022.205.013.21,0h.205l.219-.009.214-.017.214-.035.223-.039.223-.057.223-.07.223-.083.236-.1.227-.122L100.22,66l-.345,1.98-.127.066-.127.061-.118.048-.122.048-.122.039-.122.035-.127.031-.14.026-.144.017-.157.017-.17.017-.184,0-.2.009h-.223l-.245.009h-.463l-.2-.013-.2-.009-.2-.026-.205-.026-.2-.035-.2-.044-.2-.044-.2-.061-.192-.061-.192-.074-.188-.079-.184-.1-.179-.1-.166-.114-.166-.122-.157-.131-.149-.144-.149-.157-.127-.166-.122-.184-.109-.192-.1-.205-.092-.219-.074-.232-.061-.245-.052-.258-.031-.275L92.97,64.8v-.3l.009-.323L93,63.848l.017-.114.017-.135.022-.135.031-.144.026-.149.039-.157.044-.162.044-.166.057-.175.061-.166.074-.17L93.512,62l.092-.17.092-.175.109-.17.109-.166.127-.162.135-.162.144-.157.162-.144.166-.144.184-.135.2-.122.21-.118.223-.1.24-.092.249-.083.271-.07.284-.052.3-.039.315-.022.332-.013h.157l.153.013.162.009.162.017.162.022.166.035.162.039.162.044.162.048.162.061.157.07.149.079.144.087.149.1.131.109.135.118.118.127.118.14.109.157.092.162.087.175.083.188.066.21.048.214.048.236.026.245.009.262v.28l-.017.293-.026.31-.048.332-.07.345-.087.489H94.692l.345-1.547h3.47l.017-.214v-.2l-.013-.179-.031-.17-.048-.149-.052-.14-.074-.122-.083-.114-.092-.1-.109-.083-.109-.07-.118-.057-.127-.044-.135-.035-.14-.013-.144,0h-.157l-.144.017-.144.031-.131.044-.131.061-.122.074-.114.083-.109.092-.1.114-.092.118-.083.127-.079.14-.066.144-.057.157-.044.166-.039.17Z" transform="translate(-52.338 -33.609)"/>
    <path id="Path_281" data-name="Path 281" class="cls-5" d="M95.33,64.682h0l-.031.14,0,.14.013.149.031.149.044.149.07.149.079.144.092.14.1.135.122.127.127.114.144.1.149.087.157.074.166.052.166.044h0l.2.026.2.026.205.022.205.013.21,0h.205l.219-.009.214-.017.214-.035.223-.039.223-.057.223-.07.223-.083.236-.1.227-.122L100.22,66l-.345,1.98h0l-.127.066-.127.061-.118.048-.122.048-.122.039-.122.035-.127.031-.14.026-.144.017-.157.017-.17.017-.184,0-.2.009h-.223l-.245.009h-.463l-.2-.013-.2-.009-.2-.026-.205-.026-.2-.035-.2-.044-.2-.044-.2-.061-.192-.061-.192-.074-.188-.079-.184-.1-.179-.1-.166-.114-.166-.122-.157-.131-.149-.144-.149-.157-.127-.166-.122-.184-.109-.192-.1-.205-.092-.219-.074-.232-.061-.245-.052-.258-.031-.275L92.97,64.8v-.3l.009-.323L93,63.848h0l.017-.114.017-.135.022-.135.031-.144.026-.149.039-.157.044-.162.044-.166.057-.175.061-.166.074-.17L93.512,62l.092-.17.092-.175.109-.17.109-.166.127-.162.135-.162.144-.157.162-.144.166-.144.184-.135.2-.122.21-.118.223-.1.24-.092.249-.083.271-.07.284-.052.3-.039.315-.022.332-.013h.157l.153.013.162.009.162.017.162.022.166.035.162.039.162.044.162.048.162.061.157.07.149.079.144.087.149.1.131.109.135.118.118.127.118.14.109.157.092.162.087.175.083.188.066.21.048.214.048.236.026.245.009.262v.28l-.017.293-.026.31-.048.332-.07.345-.087.489H94.692l.345-1.547h3.47l.017-.214v-.2l-.013-.179-.031-.17-.048-.149-.052-.14-.074-.122-.083-.114-.092-.1-.109-.083-.109-.07-.118-.057-.127-.044-.135-.035-.14-.013-.144,0h-.157l-.144.017-.144.031-.131.044-.131.061-.122.074-.114.083-.109.092-.1.114-.092.118-.083.127-.079.14-.066.144-.057.157-.044.166-.039.17-.31,1.665" transform="translate(-52.338 -33.609)"/>
    <path id="Path_282" data-name="Path 282" class="cls-4" d="M81.935,66.688l-.315,1.779H79.61l.022-.17.022-.166.022-.149.022-.14.022-.118.017-.1.022-.066.022-.039-.1.122-.135.122-.149.118-.17.114-.184.1-.2.1-.214.087-.214.083-.232.074-.232.061-.236.044-.232.031-.232.017-.232.009-.223-.017-.219-.035-.28-.066-.253-.092-.227-.1-.2-.118-.175-.127-.153-.144-.135-.149-.109-.17-.1-.166-.079-.175-.061-.175-.048-.184-.035-.179-.022-.184-.009-.179-.009-.17.022-.31.052-.3.074-.284.1-.267.127-.249.144-.236.175-.219.179-.205.21-.184.214-.162.236-.149.245-.131.258-.109.262-.092.267-.066.271-.048h.009l.044,0,.061-.009.083-.009.092-.013.114-.009.122-.017.131-.013.135-.009.131-.017.14-.013.135-.009.122-.013.118,0,.1,0h.371l.1,0h.1l.087,0H79.9l.079.009h.074l.057,0h.057l.044,0h.061l.017-.057.039-.131.031-.157v-.14l-.013-.1-.017-.092-.026-.092-.039-.083-.044-.079-.057-.07-.057-.07-.066-.066-.074-.057-.07-.044-.087-.044-.079-.039-.092-.026-.1-.022-.092-.017-.1-.013-.227,0-.24,0-.249.009-.258.013-.253.017-.258.022-.258.031-.249.026-.24.039-.227.035-.205.039-.2.044-.17.044-.144.044-.118.044-.083.052.573-1.892.166-.079.179-.074L77.071,60l.188-.048.2-.039.2-.035.21-.026.219-.022.223-.013.227-.009.232-.009h.76l.267.009.28,0,.227.022.24.035.249.061.249.07.253.1.249.118.232.131L82,60.5l.21.179.179.192.157.219.122.236.087.267.052.284,0,.3-.044.328Z" transform="translate(-42.042 -33.665)"/>
    <path id="Path_283" data-name="Path 283" class="cls-5" d="M81.935,66.688l-.315,1.779H79.61l.022-.17.022-.166.022-.149.022-.14.022-.118.017-.1.022-.066.022-.039h0l-.1.122-.135.122-.149.118-.17.114-.184.1-.2.1-.214.087-.214.083-.232.074-.232.061-.236.044-.232.031-.232.017-.232.009-.223-.017-.219-.035h0l-.28-.066-.253-.092-.227-.1-.2-.118-.175-.127-.153-.144-.135-.149-.109-.17-.1-.166-.079-.175-.061-.175-.048-.184-.035-.179-.022-.184-.009-.179-.009-.17h0l.022-.31.052-.3.074-.284.1-.267.127-.249.144-.236.175-.219.179-.205.21-.184.214-.162.236-.149.245-.131.258-.109.262-.092.267-.066.271-.048h.009l.044,0,.061-.009.083-.009.092-.013.114-.009.122-.017.131-.013.135-.009.131-.017.14-.013.135-.009.122-.013.118,0,.1,0h.371l.1,0h.1l.087,0H79.9l.079.009h.074l.057,0h.057l.044,0h.061l.017-.057.039-.131.031-.157v-.14h0l-.013-.1-.017-.092-.026-.092-.039-.083-.044-.079-.057-.07-.057-.07-.066-.066-.074-.057-.07-.044-.087-.044-.079-.039-.092-.026-.1-.022-.092-.017-.1-.013h0l-.227,0-.24,0-.249.009-.258.013-.253.017-.258.022-.258.031-.249.026-.24.039-.227.035-.205.039-.2.044-.17.044-.144.044-.118.044-.083.052.573-1.892h0l.166-.079.179-.074L77.071,60l.188-.048.2-.039.2-.035.21-.026.219-.022.223-.013.227-.009.232-.009h.76l.267.009.28,0h0l.227.022.24.035.249.061.249.07.253.1.249.118.232.131L82,60.5l.21.179.179.192.157.219.122.236.087.267.052.284,0,.3-.044.328-.83,4.182" transform="translate(-42.042 -33.665)"/>
    <path id="Path_284" data-name="Path 284" class="cls-3" d="M83.219,70.59l0-.044-.035-.035-.057-.026-.07-.017-.1-.009-.1-.009h-.24l-.127.013-.135.017-.127.017-.127.022-.122.022-.118.022-.1.026-.087.031-.052.009-.066.022-.083.031-.092.035-.092.044-.109.048-.1.061-.1.061-.1.079-.1.083-.1.087-.083.1-.079.1-.052.118-.048.127-.026.135-.009.271.035.214.07.166.1.122.122.083.127.057.14.026.131.009.249-.009.214-.022.205-.039.184-.048.17-.057.149-.066.135-.079.114-.083.1-.083.092-.1.079-.087.066-.1.057-.092.044-.092.031-.087.031-.083.031-.127.026-.127.026-.131.026-.14.022-.135.022-.122.026-.118Z" transform="translate(-45.245 -39.661)"/>
    <path id="Path_285" data-name="Path 285" class="cls-4" d="M50.031,66.125H47.85L49.681,55.64H53.47l.371,6.241L56.42,55.64h3.929L58.514,66.125H56.337l1.377-7.854h-.087l-3.238,7.854H51.949l-.022-.332-.048-.87-.074-1.237-.083-1.42-.083-1.433-.074-1.263-.052-.913-.017-.385H51.4Z" transform="translate(-26.938 -31.323)"/>
    <path id="Path_286" data-name="Path 286" class="cls-5" d="M50.031,66.125H47.85L49.681,55.64H53.47l.371,6.241L56.42,55.64h3.929L58.514,66.125H56.337l1.377-7.854h-.087l-3.238,7.854H51.949l-.022-.332-.048-.87-.074-1.237-.083-1.42-.083-1.433-.074-1.263-.052-.913-.017-.385H51.4l-1.372,7.854" transform="translate(-26.938 -31.323)"/>
    <path id="Path_287" data-name="Path 287" class="cls-4" d="M136.06,68.483h2.268l.774-4.528.035-.179.035-.17.048-.175.052-.162.061-.162.079-.149.1-.144.1-.14.127-.122.144-.114.175-.1.192-.087.223-.074.245-.052.28-.035.315-.022h.026l.035,0,.044,0h.044l.039.009.035,0,.022,0h.009l.009-.031.022-.1.026-.144.044-.184.057-.205.061-.223.07-.223.087-.21.061-.157.07-.153.074-.149.079-.14.066-.118.052-.092.044-.061.009-.022h-.009l-.031-.013-.039,0-.057-.013-.052-.009-.07-.009-.057-.009h-.057l-.245.017-.223.026-.205.044-.192.052-.179.066-.162.074-.153.087-.14.1-.14.1-.127.118-.118.122-.122.131-.118.14-.109.153-.118.153-.118.162.262-1.429-2.264-.031-1.495,8.566Z" transform="translate(-76.596 -33.682)"/>
    <path id="Path_288" data-name="Path 288" class="cls-5" d="M136.06,68.483h2.268l.774-4.528h0l.035-.179.035-.17.048-.175.052-.162.061-.162.079-.149.1-.144.1-.14.127-.122.144-.114.175-.1.192-.087.223-.074.245-.052.28-.035.315-.022h.026l.035,0,.044,0h.044l.039.009.035,0,.022,0h.009l.009-.031.022-.1.026-.144.044-.184.057-.205.061-.223.07-.223.087-.21h0l.061-.157.07-.153.074-.149.079-.14.066-.118.052-.092.044-.061.009-.022h-.009l-.031-.013-.039,0-.057-.013-.052-.009-.07-.009-.057-.009h-.057l-.245.017-.223.026-.205.044-.192.052-.179.066-.162.074-.153.087-.14.1-.14.1-.127.118-.118.122-.122.131-.118.14-.109.153-.118.153-.118.162.262-1.429-2.264-.031-1.495,8.566h0" transform="translate(-76.596 -33.682)"/>
    <path id="Path_289" data-name="Path 289" class="cls-4" d="M152.583,59.83l.249,0,.245.017.24.022.232.035.223.044.219.057.205.061.205.07.2.083.184.092.184.1.166.1.17.114.153.122.144.131.14.14.131.144.127.153.109.157.1.166.1.175.083.184.087.184.066.192.061.2.048.205.048.214.031.214.022.219.013.227,0,.236,0,.232-.017.284-.035.275-.039.262-.048.253-.057.245-.07.232-.079.232-.083.214-.1.21-.1.2-.118.188-.118.179-.127.17-.14.162-.144.149-.149.149-.157.131-.162.127-.17.118-.175.109-.184.1-.188.092-.192.083-.2.07-.2.066-.21.057-.214.048-.214.039-.219.026-.223.022-.232.013-.227,0-.227,0-.227-.013-.219-.022-.219-.035-.21-.039-.214-.044-.2-.057-.2-.066-.2-.07-.184-.087-.175-.087-.175-.1-.166-.1-.157-.118-.153-.122-.149-.131-.131-.14-.135-.153-.118-.153-.114-.17-.1-.17-.1-.184-.083-.192-.079-.192-.066-.205-.066-.219-.048-.223-.039-.227-.026-.24-.017-.245,0-.253,0-.262.017-.267.026-.258.039-.253.048-.236.057-.236.07-.227.07-.219.083-.21.092-.205.1-.2.109-.184.118-.184.122-.166.135-.166.135-.153.144-.149.157-.14.162-.127.17-.122.17-.114.184-.1.188-.1.2-.087.192-.079.205-.066L151.2,60l.219-.048.219-.048.232-.026.232-.026.24-.013Z" transform="translate(-83.313 -33.682)"/>
    <path id="Path_290" data-name="Path 290" class="cls-5" d="M152.583,59.83h0l.249,0,.245.017.24.022.232.035.223.044.219.057.205.061.205.07.2.083.184.092.184.1.166.1.17.114.153.122.144.131.14.14.131.144.127.153.109.157.1.166.1.175.083.184.087.184.066.192.061.2.048.205.048.214.031.214.022.219.013.227,0,.236,0,.232h0l-.017.284-.035.275-.039.262-.048.253-.057.245-.07.232-.079.232-.083.214-.1.21-.1.2-.118.188-.118.179-.127.17-.14.162-.144.149-.149.149-.157.131-.162.127-.17.118-.175.109-.184.1-.188.092-.192.083-.2.07-.2.066-.21.057-.214.048-.214.039-.219.026-.223.022-.232.013-.227,0h0l-.227,0-.227-.013-.219-.022-.219-.035-.21-.039-.214-.044-.2-.057-.2-.066-.2-.07-.184-.087-.175-.087-.175-.1-.166-.1-.157-.118-.153-.122-.149-.131-.131-.14-.135-.153-.118-.153-.114-.17-.1-.17-.1-.184-.083-.192-.079-.192-.066-.205-.066-.219-.048-.223-.039-.227-.026-.24-.017-.245,0-.253,0-.262h0l.017-.267.026-.258.039-.253.048-.236.057-.236.07-.227.07-.219.083-.21.092-.205.1-.2.109-.184.118-.184.122-.166.135-.166.135-.153.144-.149.157-.14.162-.127.17-.122.17-.114.184-.1.188-.1.2-.087.192-.079.205-.066L151.2,60l.219-.048.219-.048.232-.026.232-.026.24-.013.24,0" transform="translate(-83.313 -33.682)"/>
    <path id="Path_291" data-name="Path 291" class="cls-4" d="M166.12,78.65h.656v.083h-.258v.542h-.144v-.542h-.253Z" transform="translate(-93.519 -44.277)"/>
    <path id="Path_292" data-name="Path 292" class="cls-5" d="M166.12,78.65h.656v.083h-.258v.542h-.144v-.542h-.253V78.65" transform="translate(-93.519 -44.277)"/>
    <path id="Path_293" data-name="Path 293" class="cls-4" d="M167.81,78.65h.2l.232.481h0l.232-.481h.2v.625h-.149v-.481h0l-.227.481h-.118l-.227-.481h0v.481h-.144Z" transform="translate(-94.47 -44.277)"/>
    <path id="Path_294" data-name="Path 294" class="cls-5" d="M167.81,78.65h.2l.232.481h0l.232-.481h.2v.625h-.149v-.481h0l-.227.481h-.118l-.227-.481h0v.481h-.144V78.65" transform="translate(-94.47 -44.277)"/>
    <path id="Path_295" data-name="Path 295" class="cls-2" d="M154.368,66.358l-.031.315-.017.288v.262l.017.245.031.223.052.192.061.179.079.162.092.14.1.118.118.1.131.079.14.057.153.048.162.022.175.009.188,0,.184-.022.17-.039.17-.061.153-.079.153-.1.135-.118.135-.14.118-.153.109-.179.109-.2.087-.214.083-.24.07-.262.057-.284.052-.306.026-.24.017-.227V65.7l-.017-.21-.026-.2-.044-.188-.066-.175-.07-.162-.087-.144-.1-.122-.118-.114L157,64.3l-.144-.07-.157-.048-.166-.026h-.184l-.232.017-.21.039-.2.066-.184.083-.166.114-.157.122-.135.135-.122.157-.118.166-.1.179-.092.179-.07.188-.066.192-.057.188-.039.188Z" transform="translate(-86.876 -36.12)"/>
  </g>
</svg>
