<svg id="mastercard" xmlns="http://www.w3.org/2000/svg" viewBox="0 0 94.4 58.996">
  <defs>
    <style>
      .cls-1 {
        fill: #f2f2f2;
      }

      .cls-2 {
        fill: #fbb231;
      }

      .cls-2, .cls-3, .cls-4 {
        fill-rule: evenodd;
      }

      .cls-3 {
        fill: #ec1c2e;
      }

      .cls-4 {
        fill: #fff;
      }

      .cls-5 {
        fill: none;
        stroke: #fff;
        stroke-miterlimit: 2.61;
        stroke-width: 0.22px;
      }
    </style>
  </defs>
  <g id="Layer_1" data-name="Layer 1" transform="translate(0 0)">
    <path id="Path_296" data-name="Path 296" class="cls-1" d="M94.4,55.854A3.142,3.142,0,0,1,91.254,59H3.147A3.142,3.142,0,0,1,0,55.854V3.147A3.147,3.147,0,0,1,3.147,0h88.1A3.147,3.147,0,0,1,94.4,3.147Z" transform="translate(0 0)"/>
    <path id="Path_297" data-name="Path 297" class="cls-2" d="M112.14,62.621l.878-.022.861-.066.843-.1.843-.149.817-.192.8-.227.787-.267.774-.306.752-.341.734-.371.708-.411.691-.441.664-.472.638-.5.616-.533.59-.564.564-.59.533-.616.5-.638.472-.664.441-.691.411-.708.371-.734.341-.752.3-.774.271-.787.227-.8.188-.817.149-.839.109-.848.066-.861.022-.874-.022-.87-.066-.857-.109-.843-.149-.83-.188-.817-.227-.8-.271-.787-.3-.765-.341-.752-.371-.73-.411-.7-.441-.691-.472-.664-.5-.634-.533-.616-.564-.59-.59-.559-.616-.529-.638-.5-.664-.476-.691-.437-.708-.406-.734-.371-.752-.345-.774-.3-.787-.267-.8-.232-.817-.188-.843-.144-.843-.109-.861-.066-.878-.022-.865.022-.861.066-.848.109-.835.144-.817.188-.8.232-.782.267-.774.3-.747.345-.725.371-.708.406-.686.437-.66.476-.642.5-.612.529-.586.559-.559.59-.533.616-.5.634-.468.664-.441.691-.406.7-.376.73-.337.752-.3.765L96,40.637l-.227.8-.188.817-.149.83-.1.843-.066.857-.022.87.022.874.066.861.1.848.149.839.188.817.227.8.267.787.3.774.337.752.376.734.406.708.441.691.468.664.5.638.533.616.559.59.586.564.612.533.642.5.66.472.686.441.708.411.725.371.747.341.774.306.782.267.8.227.817.192.835.149.848.1.861.066.865.022Z" transform="translate(-53.616 -16.185)"/>
    <path id="Path_298" data-name="Path 298" class="cls-3" d="M60.22,62.621l.865-.022.861-.066.848-.1.835-.149.817-.192.8-.227.782-.267.774-.306.747-.341.725-.371.708-.411.686-.441.66-.472.642-.5.612-.533.586-.564.559-.59.533-.616.5-.638.468-.664.441-.691.4-.708.38-.734.337-.752.3-.774.267-.787.227-.8.188-.817.149-.839.109-.848.061-.861.022-.874-.022-.87-.061-.857-.109-.843-.149-.83-.188-.817-.227-.8-.267-.787-.3-.765-.337-.752-.38-.73-.4-.7-.441-.691-.468-.664-.5-.634-.533-.616-.559-.59-.586-.559-.612-.529-.642-.5-.66-.476-.686-.437-.708-.406-.725-.371-.747-.345-.774-.3-.782-.267-.8-.232-.817-.188-.835-.144-.848-.109-.861-.066-.865-.022-.878.022-.861.066-.843.109-.843.144-.813.188-.809.232-.787.267-.774.3-.752.345-.73.371-.708.406-.695.437-.664.476-.638.5-.616.529-.59.559-.564.59-.529.616-.5.634-.476.664-.441.691-.411.7-.371.73-.341.752-.3.765-.271.787-.227.8-.188.817-.149.83-.109.843-.066.857-.022.87.022.874.066.861.109.848.149.839.188.817.227.8.271.787.3.774.341.752.371.734.411.708.441.691.476.664.5.638.529.616.564.59.59.564.616.533.638.5.664.472.695.441.708.411.73.371.752.341.774.306.787.267.809.227.813.192.843.149.843.1.861.066.878.022Z" transform="translate(-24.348 -16.185)"/>
    <path id="Path_299" data-name="Path 299" class="cls-2" d="M103.46,42.428h9V41.51h-8.225l-.774.918Z" transform="translate(-58.244 -23.368)"/>
    <path id="Path_300" data-name="Path 300" class="cls-2" d="M100.38,47.1h10.345V46.18h-9.8l-.542.922Z" transform="translate(-56.51 -25.998)"/>
    <path id="Path_301" data-name="Path 301" class="cls-2" d="M98.07,51.772h11.354V50.85H98.472l-.4.922Z" transform="translate(-55.21 -28.627)"/>
    <path id="Path_302" data-name="Path 302" class="cls-2" d="M96.49,56.452h12.045V55.53H96.778l-.288.922Z" transform="translate(-54.32 -31.261)"/>
    <path id="Path_303" data-name="Path 303" class="cls-2" d="M97.038,79.068h11.669V78.15H96.75l.288.918Z" transform="translate(-54.466 -43.995)"/>
    <path id="Path_304" data-name="Path 304" class="cls-2" d="M98.828,83.748h10.808V82.83H98.4l.428.918Z" transform="translate(-55.395 -46.63)"/>
    <path id="Path_305" data-name="Path 305" class="cls-2" d="M101.407,88.412H111V87.49H100.83l.577.922Z" transform="translate(-56.763 -49.253)"/>
    <path id="Path_306" data-name="Path 306" class="cls-2" d="M104.934,93.087h7.928V92.16H104.13l.8.927Z" transform="translate(-58.621 -51.882)"/>
    <path id="Path_307" data-name="Path 307" class="cls-2" d="M95.57,61.118h12.447V60.2H95.745l-.175.918Z" transform="translate(-53.802 -33.89)"/>
    <path id="Path_308" data-name="Path 308" class="cls-2" d="M112.92,74.4h4.746V73.48H113.09l-.17.918Z" transform="translate(-63.569 -41.366)"/>
    <path id="Path_309" data-name="Path 309" class="cls-2" d="M113.78,69.727h4.37V68.8h-4.2l-.175.927Z" transform="translate(-64.054 -38.732)"/>
    <path id="Path_310" data-name="Path 310" class="cls-2" d="M94.85,68.8h1.232v.927H94.907L94.85,68.8Z" transform="translate(-53.397 -38.732)"/>
    <path id="Path_311" data-name="Path 311" class="cls-4" d="M83.4,64.4l-.083,0-.079-.013-.074-.009-.074-.013-.066-.013-.074-.009-.074-.013-.083-.013-.079-.009-.092,0-.1-.009-.1,0h-.122l-.131,0-.149.013-.166.009-.114.017-.109.017-.1.035-.087.035-.079.039-.074.048-.057.057-.052.048-.035.066-.026.061-.013.07v.07l.017.074.022.07.048.079.057.074.114.1.14.087.157.074.17.061.184.061.188.061.192.07.179.074.175.1.157.118.144.144.118.175.092.219.057.258.022.31-.022.358-.039.267-.07.236-.092.214L83,68.353l-.131.166-.149.14-.157.127-.179.109-.184.083-.188.074-.192.057-.2.048-.192.035-.192.017-.188.009-.175.009h-.245l-.232-.009h-.2l-.188,0-.17,0-.153-.013-.14-.013-.131-.013-.118-.013-.109-.022-.109-.017-.1-.031-.1-.022-.092-.035L78.7,69l-.1-.035.258-1.259.048.009.066.017.079.022.1.026.1.022.114.022.127.026.135.026.144.022.144.022.157.017.157.017.166,0,.166.009h.166l.166-.009.166-.031.131-.048.1-.061.079-.079.057-.083.044-.092.031-.092.022-.083.013-.166-.052-.144-.1-.114-.144-.1-.17-.087-.2-.087-.223-.079-.223-.092-.227-.1-.219-.122-.2-.149-.179-.175-.144-.219-.1-.258-.052-.306,0-.367.031-.223.039-.21.057-.2.07-.179.092-.175.1-.149.122-.144.14-.122.166-.109.184-.092.205-.083.232-.066L81,63.026l.28-.039.306-.022.341,0h.21l.192,0,.179,0,.162.009.14.009.135.013.114.009.1.013.1.013.079.017.079.009.066.013.057.009.052.009.052.009.044.009L83.4,64.4Z" transform="translate(-44.249 -35.444)"/>
    <path id="Path_312" data-name="Path 312" class="cls-5" d="M83.4,64.4h0l-.083,0-.079-.013-.074-.009-.074-.013-.066-.013-.074-.009-.074-.013-.083-.013-.079-.009-.092,0-.1-.009-.1,0h-.122l-.131,0-.149.013-.166.009h0l-.114.017-.109.017-.1.035-.087.035-.079.039-.074.048-.057.057-.052.048-.035.066-.026.061-.013.07v.07l.017.074.022.07.048.079.057.074h0l.114.1.14.087.157.074.17.061.184.061.188.061.192.07.179.074.175.1.157.118.144.144.118.175.092.219.057.258.022.31-.022.358h0l-.039.267-.07.236-.092.214L83,68.353l-.131.166-.149.14-.157.127-.179.109-.184.083-.188.074-.192.057-.2.048-.192.035-.192.017-.188.009-.175.009h-.245l-.232-.009h-.2l-.188,0-.17,0-.153-.013-.14-.013-.131-.013-.118-.013-.109-.022-.109-.017-.1-.031-.1-.022-.092-.035L78.7,69l-.1-.035.258-1.259h0l.048.009.066.017.079.022.1.026.1.022.114.022.127.026.135.026.144.022.144.022.157.017.157.017.166,0,.166.009h.166l.166-.009h0l.166-.031.131-.048.1-.061.079-.079.057-.083.044-.092.031-.092.022-.083h0l.013-.166-.052-.144-.1-.114-.144-.1-.17-.087-.2-.087-.223-.079-.223-.092-.227-.1-.219-.122-.2-.149-.179-.175-.144-.219-.1-.258-.052-.306,0-.367h0l.031-.223.039-.21.057-.2.07-.179.092-.175.1-.149.122-.144.14-.122.166-.109.184-.092.205-.083.232-.066L81,63.026l.28-.039.306-.022.341,0h.21l.192,0,.179,0,.162.009.14.009.135.013.114.009.1.013.1.013.079.017.079.009.066.013.057.009.052.009.052.009.044.009L83.4,64.4" transform="translate(-44.249 -35.444)"/>
    <path id="Path_313" data-name="Path 313" class="cls-4" d="M91.228,60.07H92.81l-.236,1.381h.953l-.205,1.294-1.005-.031L91.769,65.9l-.009.118.031.1.057.074.074.061.1.039.114.035.122.022.14.013.127,0,.114-.013.1-.017.092-.022.074-.022.052-.017L93,66.25l.009,0-.2,1.062-.044.026-.039.026-.039.022-.039.022-.039.017-.048.017-.048.017-.052.017-.057.017-.057.009-.07.013-.07.013-.074.009-.083.013-.092.009-.1.013h-.437l-.227-.017L91,67.53l-.184-.035-.153-.039-.131-.052-.109-.057-.1-.07-.074-.074-.057-.079-.039-.1-.031-.1-.017-.109,0-.122v-.122l.017-.131.017-.144,1.093-6.232Z" transform="translate(-50.723 -33.817)"/>
    <path id="Path_314" data-name="Path 314" class="cls-5" d="M91.228,60.07H92.81l-.236,1.381h.953l-.205,1.294-1.005-.031L91.769,65.9h0l-.009.118.031.1.057.074.074.061.1.039.114.035.122.022.14.013h0l.127,0,.114-.013.1-.017.092-.022.074-.022.052-.017L93,66.25l.009,0-.2,1.062h0l-.044.026-.039.026-.039.022-.039.022-.039.017-.048.017-.048.017-.052.017-.057.017-.057.009-.07.013-.07.013-.074.009-.083.013-.092.009-.1.013h-.437l-.227-.017L91,67.53l-.184-.035-.153-.039-.131-.052-.109-.057-.1-.07-.074-.074-.057-.079-.039-.1-.031-.1-.017-.109,0-.122v-.122l.017-.131.017-.144,1.093-6.232" transform="translate(-50.723 -33.817)"/>
    <path id="Path_315" data-name="Path 315" class="cls-5" d="M98.685,66.522h0l-.013.1-.009.1.009.109.026.109.039.109.048.1.061.109.066.1.083.1.083.083.092.087.1.066.1.066.118.048.114.039.114.026h0l.149.022.14.017.149.017.153.013.144,0h.153l.153,0,.153-.013.153-.022.157-.031.157-.035.153-.048.162-.066.166-.07.157-.087.17-.1-.232,1.407h0l-.092.044-.092.048-.092.035-.083.035-.087.026-.092.031-.092.022-.1.017-.1.017-.118.009-.118.013-.131.009-.149.009h-.153l-.179,0H100.1l-.28,0-.284-.031-.288-.039-.284-.07-.28-.083-.271-.109-.258-.144-.236-.166-.223-.192-.2-.236-.166-.262-.135-.3-.1-.337-.066-.385-.013-.424.026-.468h0l.022-.179.035-.214.044-.223.066-.24.087-.245.1-.245.131-.253.162-.24.184-.227.219-.219.253-.192.288-.17.328-.144.371-.1.411-.07.463-.022h0l.223,0,.236.022.232.039.236.057.227.087.223.1.205.135.188.162.175.192.14.227.118.262.079.306.044.341.009.389-.044.433-.083.481-.031.35H98.222l.267-1.128h2.5l.013-.14-.009-.14-.009-.127-.022-.109-.044-.109-.039-.1-.057-.083-.057-.083-.07-.066-.074-.057-.083-.052-.087-.048-.092-.031-.092-.026-.1-.013-.1-.013h0l-.109,0-.1.017-.1.026-.1.031-.1.048-.083.048-.087.066-.07.066-.079.083-.066.083-.066.092-.052.1-.048.1-.044.114-.031.114-.026.122-.227,1.18" transform="translate(-54.618 -35.444)"/>
    <path id="Path_316" data-name="Path 316" class="cls-4" d="M124.5,61.464l-.074-.044-.074-.035-.079-.039-.087-.039-.087-.031-.1-.035-.1-.035-.1-.035-.109-.031-.109-.022-.118-.022-.118-.017-.131-.013-.135-.009h-.42l-.149.009-.153.017-.162.031-.162.044-.157.066-.162.079-.162.1-.153.127-.149.149-.144.184-.135.21-.127.253-.118.284-.1.323-.1.363-.031.205-.026.2-.009.2,0,.192.017.2.039.184.052.17.061.17.087.153.1.149.122.131.135.122.153.1.179.087.192.074.219.052.074.013.087.017.1.013.114.013.127.009h.275l.144-.009.149-.017.144-.031.144-.039.144-.044.14-.066.135-.074.118-.092.114-.1-.258,1.525-.035.026-.035.035-.044.039-.052.035-.061.048-.079.039-.092.039-.1.035-.131.039-.149.026-.17.026-.2.022-.223.009-.253.009-.293-.009-.323-.013-.262-.031-.262-.057-.262-.087-.262-.114-.249-.135-.24-.175-.232-.2-.21-.227-.188-.258L119,65.642l-.135-.319-.1-.345-.066-.385-.026-.406.013-.446.061-.472.048-.236.052-.227.057-.223.057-.214.061-.2.074-.2.074-.188.079-.179.087-.175.087-.166.1-.162.1-.149.1-.144.114-.135.114-.127.122-.118.131-.114.131-.109.135-.1.144-.092.153-.087.153-.074.162-.066.166-.066.175-.057.179-.044.184-.044.192-.031.2-.031.205-.022.205-.013.219,0,.179,0,.179.013.17.017.17.022.162.022.153.035.149.031.14.031.131.035.114.035.109.035.092.035.079.026.07.026.048.022.035.013-.284,1.582Z" transform="translate(-66.807 -33.485)"/>
    <path id="Path_317" data-name="Path 317" class="cls-5" d="M124.5,61.464h0l-.074-.044-.074-.035-.079-.039-.087-.039-.087-.031-.1-.035-.1-.035-.1-.035-.109-.031-.109-.022-.118-.022-.118-.017-.131-.013-.135-.009h-.42l-.149.009-.153.017-.162.031-.162.044-.157.066-.162.079-.162.1-.153.127-.149.149-.144.184-.135.21-.127.253-.118.284-.1.323-.1.363h0l-.031.205-.026.2-.009.2,0,.192.017.2.039.184.052.17.061.17.087.153.1.149.122.131.135.122.153.1.179.087.192.074.219.052h0l.074.013.087.017.1.013.114.013.127.009h.275l.144-.009.149-.017.144-.031.144-.039.144-.044.14-.066.135-.074.118-.092.114-.1-.258,1.525h0l-.035.026-.035.035-.044.039-.052.035-.061.048-.079.039-.092.039-.1.035-.131.039-.149.026-.17.026-.2.022-.223.009-.253.009-.293-.009-.323-.013h0l-.262-.031-.262-.057-.262-.087-.262-.114-.249-.135-.24-.175-.232-.2-.21-.227-.188-.258L119,65.642l-.135-.319-.1-.345-.066-.385-.026-.406.013-.446.061-.472h0l.048-.236.052-.227.057-.223.057-.214.061-.2.074-.2.074-.188.079-.179.087-.175.087-.166.1-.162.1-.149.1-.144.114-.135.114-.127.122-.118.131-.114.131-.109.135-.1.144-.092.153-.087.153-.074.162-.066.166-.066.175-.057.179-.044.184-.044.192-.031.2-.031.205-.022.205-.013.219,0h0l.179,0,.179.013.17.017.17.022.162.022.153.035.149.031.14.031.131.035.114.035.109.035.092.035.079.026.07.026.048.022.035.013-.284,1.582" transform="translate(-66.807 -33.485)"/>
    <path id="Path_318" data-name="Path 318" class="cls-4" d="M157.451,67.6h-1.582l.114-.634v-.057l-.092.114-.1.1-.1.092-.1.083-.1.074-.1.061-.1.052-.1.052-.109.039-.109.026-.109.031-.114.017-.114.017-.109.009-.114.009h-.114l-.3-.026-.275-.061-.249-.1-.232-.131-.205-.166-.184-.192-.157-.214-.14-.24-.114-.258-.092-.267-.061-.28-.048-.293-.013-.293,0-.293.026-.293.052-.293.087-.337.1-.319.118-.293.14-.271.149-.258.175-.232.175-.205.188-.188.2-.166.21-.14.219-.127.219-.1.227-.083.227-.048.232-.035.232-.013.166,0,.157.017.153.031.135.039.131.048.114.048.118.066.1.061.092.07.083.074.074.074.07.074.057.074.052.074.044.066.035.07h0l.4-2.246h1.551L157.451,67.6Z" transform="translate(-85.694 -33.851)"/>
    <path id="Path_319" data-name="Path 319" class="cls-5" d="M157.451,67.6h-1.582l.114-.634v-.057h0l-.092.114-.1.1-.1.092-.1.083-.1.074-.1.061-.1.052-.1.052-.109.039-.109.026-.109.031-.114.017-.114.017-.109.009-.114.009h-.114l-.3-.026-.275-.061-.249-.1-.232-.131-.205-.166-.184-.192-.157-.214-.14-.24-.114-.258-.092-.267-.061-.28-.048-.293-.013-.293,0-.293.026-.293.052-.293h0l.087-.337.1-.319.118-.293.14-.271.149-.258.175-.232.175-.205.188-.188.2-.166.21-.14.219-.127.219-.1.227-.083.227-.048.232-.035.232-.013h0l.166,0,.157.017.153.031.135.039.131.048.114.048.118.066.1.061.092.07.083.074.074.074.07.074.057.074.052.074.044.066.035.07h0l.4-2.246h1.551L157.451,67.6" transform="translate(-85.694 -33.851)"/>
    <path id="Path_320" data-name="Path 320" class="cls-2" d="M157.229,69.741l.157-.013.149-.035.14-.039.131-.061.118-.07.118-.083.1-.1.1-.1.083-.114.079-.127.074-.131.066-.14.057-.14.044-.149.044-.157.026-.153.026-.157.022-.166v-.157l-.009-.157-.017-.149-.022-.144-.039-.135-.048-.131-.057-.114-.066-.109-.074-.092-.087-.083-.1-.066-.1-.048-.1-.026-.122-.013-.153.013-.144.022-.131.044-.131.057-.114.079-.114.092-.1.1-.1.109-.087.122-.079.131-.074.14-.061.149-.057.153-.048.153-.044.166-.035.166-.031.253.013.271.039.28.074.271.114.236.149.188.188.122.232.048Z" transform="translate(-88.058 -37.369)"/>
    <path id="Path_321" data-name="Path 321" class="cls-4" d="M71.3,67.985l-.232,1.267H69.626l.039-.236.031-.21.022-.157.022-.087-.079.092-.092.092-.109.083-.118.083-.14.079-.144.07-.149.066-.153.057-.166.052-.166.039-.162.035-.175.022-.166.013-.162,0-.162-.017-.157-.022-.2-.052L67.06,69.2l-.162-.074-.14-.083-.127-.092-.114-.1-.092-.109-.083-.114-.066-.118-.057-.127-.048-.127-.031-.122L66.116,68l-.017-.135-.009-.122v-.127l.017-.223.035-.21.052-.2.079-.2.092-.179.1-.166.122-.162.135-.144.14-.131.162-.118.166-.109.17-.092.184-.079.188-.066.2-.048.2-.035h.013l.026,0,.044-.009.061,0,.07-.013.079,0,.083-.013.1-.009.1-.013.1-.009.1-.009.092-.009.092-.009.083,0,.079,0h.2l.14,0,.122,0h.127l.1.009.079,0,.057,0h.017l.013-.039.031-.1.031-.122L70.172,65l-.022-.122-.048-.118-.07-.1-.092-.087-.109-.074-.118-.052-.14-.031-.149-.013-.162,0-.17-.009h-.175l-.184.009-.188.009-.184.017-.184.017L68,64.459l-.17.026-.17.026-.144.026-.14.031-.127.035-.1.035-.079.039-.066.035.406-1.377.127-.052.122-.044.14-.039.135-.031.14-.031.149-.022.149-.022.153-.013.162-.009.162-.009.175,0h.546l.2,0,.2.009.162.009.175.031.175.039.184.052.175.07.175.079.17.1.157.109.144.127.127.135.114.153.087.175.057.184.031.192v.214l-.031.232L71.3,67.985Z" transform="translate(-37.206 -35.5)"/>
    <path id="Path_322" data-name="Path 322" class="cls-5" d="M71.3,67.985l-.232,1.267H69.626l.039-.236.031-.21.022-.157.022-.087h0l-.079.092-.092.092-.109.083-.118.083-.14.079-.144.07-.149.066-.153.057-.166.052-.166.039-.162.035-.175.022-.166.013-.162,0-.162-.017-.157-.022h0l-.2-.052L67.06,69.2l-.162-.074-.14-.083-.127-.092-.114-.1-.092-.109-.083-.114-.066-.118-.057-.127-.048-.127-.031-.122L66.116,68l-.017-.135-.009-.122v-.127h0l.017-.223.035-.21.052-.2.079-.2.092-.179.1-.166.122-.162.135-.144.14-.131.162-.118.166-.109.17-.092.184-.079.188-.066.2-.048.2-.035h.013l.026,0,.044-.009.061,0,.07-.013.079,0,.083-.013.1-.009.1-.013.1-.009.1-.009.092-.009.092-.009.083,0,.079,0h.2l.14,0,.122,0h.127l.1.009.079,0,.057,0h.017l.013-.039.031-.1.031-.122L70.172,65h0l-.022-.122-.048-.118-.07-.1-.092-.087-.109-.074-.118-.052-.14-.031-.149-.013h0l-.162,0-.17-.009h-.175l-.184.009-.188.009-.184.017-.184.017L68,64.459l-.17.026-.17.026-.144.026-.14.031-.127.035-.1.035-.079.039-.066.035.406-1.377h0l.127-.052.122-.044.14-.039.135-.031.14-.031.149-.022.149-.022.153-.013.162-.009.162-.009.175,0h.546l.2,0,.2.009h0l.162.009.175.031.175.039.184.052.175.07.175.079.17.1.157.109.144.127.127.135.114.153.087.175.057.184.031.192v.214l-.031.232L71.3,67.985" transform="translate(-37.206 -35.5)"/>
    <path id="Path_323" data-name="Path 323" class="cls-3" d="M72.2,70.785l-.009-.031-.022-.026-.035-.017-.057-.013-.061-.009-.074-.009h-.175l-.092.009-.1.009-.092.013-.087.013-.087.009-.079.017-.07.017-.066.017-.039.009-.044.017-.061.022-.066.031-.074.035-.074.039-.079.039-.074.048-.079.057-.074.057-.07.07-.066.066-.057.074-.039.083-.035.087-.013.092-.009.2.031.153.057.114.074.087.083.057.1.035.087.017.1,0,.17,0L71,72.253l.149-.026.131-.035.114-.039L71.5,72.1l.1-.052.087-.061.074-.061.07-.066.057-.061.044-.07.039-.07.035-.07.031-.061.013-.061L72.1,71.3l.039-.192.035-.179.031-.149Z" transform="translate(-39.492 -39.79)"/>
    <path id="Path_324" data-name="Path 324" class="cls-4" d="M48.491,67.57H46.94l1.3-7.5h2.7l.258,4.449,1.866-4.449h2.823l-1.329,7.5H53.006l.983-5.6h-.066L51.6,67.57H49.846l-.009-.236-.044-.621-.048-.883-.057-1.018-.061-1.023-.048-.9-.044-.651-.009-.275H49.44l-.948,5.6Z" transform="translate(-26.425 -33.817)"/>
    <path id="Path_325" data-name="Path 325" class="cls-5" d="M48.491,67.57H46.94l1.3-7.5h2.7l.258,4.449,1.866-4.449h2.823l-1.329,7.5H53.006l.983-5.6h-.066L51.6,67.57H49.846l-.009-.236-.044-.621-.048-.883-.057-1.018-.061-1.023-.048-.9-.044-.651-.009-.275H49.44l-.948,5.6" transform="translate(-26.425 -33.817)"/>
    <path id="Path_326" data-name="Path 326" class="cls-4" d="M136.2,67.985l-.232,1.267h-1.438l.013-.236,0-.205v-.153l.013-.066-.074.083-.087.087-.1.079-.109.079-.122.074-.135.07-.144.07-.144.057-.153.044-.157.048-.162.026-.157.022-.17.013-.157,0-.157-.017-.153-.022-.205-.052-.184-.057-.157-.074-.149-.083-.127-.092-.109-.1-.092-.109-.079-.114-.07-.118-.052-.127-.044-.127-.026-.122L131.056,68l-.017-.135-.009-.122v-.127l.009-.223.035-.21.052-.2.074-.2.083-.179.114-.166.118-.162.131-.144.149-.131.153-.118.166-.109.175-.092.179-.079.188-.066.188-.048.2-.035h.009l.031,0,.039-.009.057,0,.074-.013.083,0,.083-.013.092-.009.1-.013.1-.009.1-.009.1-.009.092-.009.079,0,.083,0h.2l.14,0,.131,0h.127l.1.009.1,0,.048,0h.026l.009-.039.017-.1.017-.122.009-.109-.022-.122-.044-.118-.074-.1-.087-.087-.1-.074-.122-.052-.127-.031-.135-.013-.162,0-.17-.009h-.175l-.184.009-.188.009-.184.017-.184.017-.179.022-.17.026-.166.026-.144.026-.14.031-.127.035-.1.035-.079.039-.066.035.4-1.377.127-.052.127-.044.131-.039.14-.031.144-.031.14-.022.149-.022.153-.013.162-.009.166-.009.166,0h.538l.192,0,.2.009.157.009.175.031.175.039.184.052.175.07.179.079.17.1.162.109.14.127.135.135.114.153.083.175.066.184.039.192v.214l-.031.232-.6,3.016Z" transform="translate(-73.765 -35.5)"/>
    <path id="Path_327" data-name="Path 327" class="cls-4" d="M142.295,75.631l.031-.035.236-1.267-.07-.009-.232,1.267.035-.035v.079l.026,0,0-.031-.031.035Z" transform="translate(-80.087 -41.839)"/>
    <path id="Path_328" data-name="Path 328" class="cls-4" d="M138.964,77.179l.035.039h1.438V77.14H139l.035.039h-.07l0,.039H139l-.035-.039Z" transform="translate(-78.229 -43.427)"/>
    <path id="Path_329" data-name="Path 329" class="cls-4" d="M139.066,75.708l-.052-.048-.026.092,0,.153v.205l-.013.236h.07l.013-.236.013-.205-.009-.153v-.044L139,75.66l.061.048Z" transform="translate(-78.235 -42.594)"/>
    <path id="Path_330" data-name="Path 330" class="cls-4" d="M134.1,76.438h0l.157.022.157.017.157,0,.17-.013.162-.022.162-.031.157-.044.162-.044.144-.061.149-.066.135-.07.118-.079.122-.083.1-.079.087-.092.079-.083-.061-.048-.074.087-.079.079-.1.079-.109.083-.122.066-.135.07-.14.07-.14.057-.149.044-.162.048-.157.026-.153.022-.17.013-.157,0-.157-.017-.149-.022h0l-.009.07Z" transform="translate(-75.493 -42.594)"/>
    <path id="Path_331" data-name="Path 331" class="cls-4" d="M130.93,73.48h0l.009.127.009.122.017.14.026.131.026.127.048.131.048.131.074.118.083.122.092.1.114.109.131.092.149.092.166.074.188.057.205.052.009-.07-.2-.048-.179-.061-.153-.07-.149-.083-.122-.092-.1-.1-.087-.109-.083-.109-.061-.118-.052-.122-.044-.118-.031-.127-.022-.131-.017-.127-.009-.122,0-.127h-.083Z" transform="translate(-73.708 -41.366)"/>
    <path id="Path_332" data-name="Path 332" class="cls-4" d="M132.984,68.46h0l-.2.035-.192.052-.188.061-.184.079-.179.092-.17.114-.153.122-.149.135-.14.144-.118.157-.114.175-.087.188-.074.192-.052.205-.035.219-.017.223h.083l0-.223.035-.205.052-.192.074-.2.083-.179.1-.157.122-.162.122-.14.149-.127.157-.122.157-.1.179-.092.166-.079.192-.066.184-.052.188-.031h0v-.07Z" transform="translate(-73.708 -38.54)"/>
    <path id="Path_333" data-name="Path 333" class="cls-4" d="M136.806,68.19h-.061l-.083.009-.079.009-.092,0-.1.009-.1.009-.1.009-.1.013-.092.013-.083.009-.083,0-.074.013-.057,0-.044.009-.026,0h-.009v.07h.009l.035-.009.035,0,.057,0,.074-.013.083,0,.083-.013.092-.013.1-.009.1-.013.1,0,.1-.013.092,0,.079,0h.144V68.19Z" transform="translate(-76.354 -38.388)"/>
    <path id="Path_334" data-name="Path 334" class="cls-4" d="M139.094,68.251l.035-.031H139.1l-.048,0-.1,0-.1-.013H138.6l-.14-.009h-.135v.079h.275l.131.009h.232l.1.009.048,0h.026l.031-.026-.031.026.026,0,0-.031-.066-.013Z" transform="translate(-77.869 -38.388)"/>
    <path id="Path_335" data-name="Path 335" class="cls-4" d="M140.147,67.49h-.009l0,.109-.017.114-.017.1-.009.039.066.013.013-.044.017-.1.017-.127.017-.109h-.074Z" transform="translate(-78.865 -37.994)"/>
    <path id="Path_336" data-name="Path 336" class="cls-4" d="M138.66,66.1v0l.131,0,.122.035.114.052.1.07.079.079.07.1.048.1.022.118h.066l-.022-.131-.044-.127-.083-.1-.092-.1-.109-.079-.122-.048-.131-.035-.144-.017V66.1Z" transform="translate(-78.06 -37.172)"/>
    <path id="Path_337" data-name="Path 337" class="cls-4" d="M133.05,66.363l.061.031.057-.026.07-.039.1-.035.127-.035.135-.026.149-.031.166-.031.162-.022.179-.022.184-.017.184-.017.188-.009h.529l.162,0v-.07l-.162,0L135.17,66h-.175l-.184.013-.188.009-.184.017-.184.017-.179.026-.175.022-.166.026-.149.031-.135.031-.127.031-.109.035-.083.039-.07.039.057.035-.07-.009Z" transform="translate(-74.902 -37.155)"/>
    <path id="Path_338" data-name="Path 338" class="cls-4" d="M133.474,63.61l-.022.031-.4,1.377.07.009.4-1.377-.022.031-.022-.07-.017,0,0,.026.022-.031Z" transform="translate(-74.902 -35.81)"/>
    <path id="Path_339" data-name="Path 339" class="cls-4" d="M136.564,62.987h0l-.2-.013-.192,0h-.538l-.166.013-.166,0-.162.013-.153.009-.153.022-.14.026-.144.026-.14.031-.135.039-.131.044-.127.052.022.07.127-.052.131-.044.127-.044.135-.026.144-.031.144-.022.14-.022.153-.013.162-.009.166-.009h.7l.192.009h.2v-.07Z" transform="translate(-75.448 -35.45)"/>
    <path id="Path_340" data-name="Path 340" class="cls-4" d="M141.8,64.946h0l.031-.236V64.5l-.039-.2-.066-.188-.092-.179-.114-.157-.135-.144-.144-.127-.166-.109-.17-.1-.184-.079-.179-.07-.188-.052-.175-.039L140,63.023l-.157-.013v.07l.157.009.166.031.179.039.179.052.175.066.17.083.17.092.157.1.14.127.127.131.114.149.079.166.066.179.039.188v.214l-.031.227h0l.07.009Z" transform="translate(-78.724 -35.472)"/>
    <path id="Path_341" data-name="Path 341" class="cls-4" d="M142.86,70.444h0l.6-3.016-.07-.009-.6,3.016h0l.07.009Z" transform="translate(-80.385 -37.955)"/>
    <path id="Path_342" data-name="Path 342" class="cls-2" d="M137.109,70.779l-.013-.035-.022-.026-.039-.022-.061-.013-.061-.009-.074,0h-.083l-.087,0-.092.013-.092.009-.092.013-.083.013-.087.017-.074.009-.074.017-.057.013-.039,0-.048.017-.057.017-.061.022-.074.035-.07.035-.079.039-.074.052-.074.052-.074.061-.061.061-.066.074-.048.083-.044.083-.031.092-.022.1,0,.2.031.153.044.114.07.087.083.057.1.035.1.017.1,0,.17,0,.162-.017.149-.031.131-.039.127-.044.109-.052.1-.057.092-.07.079-.061.07-.074.061-.07.052-.074.039-.07.031-.066.022-.07.017-.061.022-.162.031-.166.022-.157.013-.144Z" transform="translate(-76.05 -39.784)"/>
    <path id="Path_343" data-name="Path 343" class="cls-4" d="M166.63,74.449l.013-.131.044-.153.083-.14.1-.118.118-.1.14-.07.149-.048.157-.013.162.013.149.048.14.07.118.1.1.118.079.14.048.153.013.131h-.175l0-.1-.035-.122-.057-.114-.074-.1-.092-.079-.1-.057-.131-.039-.131-.013-.131.013-.122.039-.109.057-.092.079-.074.1-.057.114-.035.122-.013.1Z" transform="translate(-93.806 -41.479)"/>
    <path id="Path_344" data-name="Path 344" class="cls-4" d="M167.81,75V74.66h.315l.07,0,.061.009.044.017.044.026.026.031.022.035.013.039,0,.044,0,.048-.013.039-.017.035-.009.013h-.24l.022,0,.039-.009.035-.009.031-.013.022-.017.013-.017.009-.026v-.039l0-.031-.013-.022-.017-.013-.017-.009-.026-.009-.031,0h-.232V75Z" transform="translate(-94.47 -42.031)"/>
    <path id="Path_345" data-name="Path 345" class="cls-4" d="M166.624,75.44l0,.035.017.166.044.153.083.135.1.118.118.1.14.074.149.044.157.017.162-.017.149-.044.14-.074.118-.1.1-.118.079-.135.048-.153.017-.166,0-.035h-.175l.009.035-.013.135-.035.127-.057.109-.074.1-.092.079-.1.066-.131.039-.131.009-.131-.009-.122-.039-.109-.066-.092-.079-.074-.1-.057-.109-.035-.127-.013-.135V75.44Z" transform="translate(-93.8 -42.47)"/>
    <path id="Path_346" data-name="Path 346" class="cls-4" d="M167.81,75.44v.35h.144V75.5h.14l.175.288h.114l-.175-.288h.044l.039-.009.035-.013.031-.022.009-.017h-.24l-.031,0h-.14v0Z" transform="translate(-94.47 -42.47)"/>
    <path id="Path_347" data-name="Path 347" class="cls-5" d="M166.62,74.5h0v-.166l.044-.153.083-.14.1-.118.118-.1.14-.07.149-.048h.319l.149.048.14.07.118.1.1.118.079.14.048.153V74.5h0v.166l-.048.153-.079.135-.1.118-.118.1-.14.074-.149.044h-.319l-.149-.044-.14-.074-.118-.1-.1-.118-.083-.135-.044-.153V74.5m.664.315h-.144v-.691h.49l.044.026.026.035V74.3h0v.122l-.026.031h-.14l.17.284h-.114l-.175-.284h-.14v.284m.14-.345h.179v-.066h0V74.3h-.288v.227h.14m0,.691h.135l.122-.039.109-.066.092-.079.074-.1.057-.109.035-.127v-.135h0v-.135l-.035-.127-.057-.114-.074-.1-.092-.079-.109-.057-.122-.039h-.267l-.122.039-.109.057-.092.079-.074.1-.057.114-.035.127v.135h0V74.7l.035.127.057.109.074.1.092.079.109.066.122.039h.131" transform="translate(-93.8 -41.496)"/>
    <path id="Path_348" data-name="Path 348" class="cls-4" d="M143.85,69.27h1.613l.577-3.252.022-.122.035-.127.035-.127.044-.127.057-.122.07-.122.074-.114.092-.109.1-.1.114-.092.131-.087.149-.066.166-.057.184-.048.2-.035.223-.013h.14l.258-1.464-.157.009-.157.017-.14.031-.14.039-.122.044-.122.061-.114.061-.109.066-.1.083-.1.079-.087.092-.092.092-.087.1-.083.109-.087.1-.083.118.175-1.036h-1.608L143.85,69.27Z" transform="translate(-80.982 -35.517)"/>
    <path id="Path_349" data-name="Path 349" class="cls-5" d="M143.85,69.27h1.613l.577-3.252h0l.022-.122.035-.127.035-.127.044-.127.057-.122.07-.122.074-.114.092-.109.1-.1.114-.092.131-.087.149-.066.166-.057.184-.048.2-.035.223-.013h.14l.258-1.464h0l-.157.009-.157.017-.14.031-.14.039-.122.044-.122.061-.114.061-.109.066-.1.083-.1.079-.087.092-.092.092-.087.1-.083.109-.087.1-.083.118.175-1.036h-1.608L143.85,69.27h0" transform="translate(-80.982 -35.517)"/>
    <path id="Path_350" data-name="Path 350" class="cls-4" d="M109.24,69.27h1.639l.546-3.252.026-.122.026-.122.031-.118.039-.118.044-.114.057-.1.07-.1.079-.1.092-.087.1-.083.122-.07.14-.066.162-.048.175-.048.192-.026.223-.017h.017l.022,0,.031,0h.031l.026.009.022,0,.017,0h0l.009-.022.017-.07.022-.1.031-.127.039-.149.039-.162.052-.157.048-.162.048-.1.057-.109.057-.109.057-.1.052-.087.039-.07.026-.039.013-.017h0l-.022,0-.031,0-.039-.009h-.039l-.048,0-.039,0h-.039l-.175.009-.162.017-.149.031-.135.035-.135.044-.118.057-.109.057-.1.07-.1.074-.087.087-.087.083-.087.1-.083.1-.083.109-.083.109-.087.118.205-1.036h-1.639L109.24,69.27Z" transform="translate(-61.498 -35.517)"/>
    <path id="Path_351" data-name="Path 351" class="cls-5" d="M109.24,69.27h1.639l.546-3.252h0l.026-.122.026-.122.031-.118.039-.118.044-.114.057-.1.07-.1.079-.1.092-.087.1-.083.122-.07.14-.066.162-.048.175-.048.192-.026.223-.017h.017l.022,0,.031,0h.031l.026.009.022,0,.017,0h0l.009-.022.017-.07.022-.1.031-.127.039-.149.039-.162.052-.157.048-.162h0l.048-.1.057-.109.057-.109.057-.1.052-.087.039-.07.026-.039.013-.017h0l-.022,0-.031,0-.039-.009h-.039l-.048,0-.039,0h-.039l-.175.009-.162.017-.149.031-.135.035-.135.044-.118.057-.109.057-.1.07-.1.074-.087.087-.087.083-.087.1-.083.1-.083.109-.083.109-.087.118.205-1.036h-1.639L109.24,69.27h0" transform="translate(-61.498 -35.517)"/>
    <path id="Path_352" data-name="Path 352" class="cls-2" d="M168.419,90.646v-.035l-.026-.026h-.533v.6H168V90.9h.14l.175.288h.114l-.175-.288h.17v-.157Zm-.1.1v.026H168V90.55h.288v.2Z" transform="translate(-94.499 -50.976)"/>
    <path id="Path_353" data-name="Path 353" class="cls-2" d="M168.238,90.234h0l-.048-.149-.079-.131-.1-.114-.118-.092-.14-.07-.149-.039h-.319l-.149.039-.14.07-.118.092-.1.114-.083.131-.044.149h0v.127h0v.166l.044.153.083.135.1.122.118.1.14.07.149.044h.319l.149-.044.14-.07.118-.1.1-.122.079-.135.048-.153v-.166h0Zm-.153.144v.135l-.035.127-.057.109-.074.1-.092.079-.109.066-.122.039h-.267l-.122-.039-.109-.066-.092-.079-.074-.1-.057-.109-.035-.127v-.135h0v-.122h0l.035-.118.057-.109.074-.1.092-.083.109-.061.122-.039h.267l.122.039.109.061.092.083.074.1.057.109.035.118h0Z" transform="translate(-93.823 -50.464)"/>
    <path id="Path_354" data-name="Path 354" class="cls-4" d="M102.524,64.906l-.044-.341-.079-.306L102.284,64l-.14-.227-.175-.2-.188-.157-.205-.135-.223-.1-.227-.087-.236-.057-.232-.039-.236-.022h-.686l-.411.07-.371.1-.332.144-.284.17-.253.2-.219.214-.184.232-.162.236-.131.253-.1.245-.087.245-.066.24-.044.223-.035.21v.184L97,66.418v.437l.066.385.1.337.135.3.166.262.2.236.223.192.24.166.253.144.271.109.28.083.284.07.288.039.284.031h1.6l.092-.031.087-.026.083-.035.092-.035.092-.048.092-.044.232-1.407-.17.1-.157.087-.166.07-.162.066-.153.048-.157.035-.157.031H99.583l-.109-.044-.118-.048-.1-.066-.1-.066-.092-.087-.083-.083-.083-.1-.066-.1-.066-.109-.044-.1-.039-.109L98.652,67v-.28h3.706l.031-.35.083-.481.039-.437Zm-1.547.524H98.888v-.079l.026-.122.035-.114L98.989,65l.048-.1.052-.1.066-.092.066-.083.079-.083.07-.066.087-.066.083-.048.1-.048.1-.031.1-.026h.424l.092.026.092.031.087.048.083.052.074.057.07.066.057.083.057.083.039.1.044.109v.376Z" transform="translate(-54.607 -35.45)"/>
  </g>
</svg>
