<svg xmlns="http://www.w3.org/2000/svg" viewBox="0 0 98.946 77.562">
  <defs>
    <style>
      .cls-1 {
        fill: #002f7d;
      }

      .cls-2 {
        fill: #f58634;
      }
    </style>
  </defs>
  <g id="Group_66" data-name="Group 66" transform="translate(-914 -1081.054)">
    <path id="coins" class="cls-1" d="M72.987,24.9c-.12-2.082-2.6-3.708-7.548-4.949a2.744,2.744,0,0,0,.262-1.139V10.3H65.68C65.244,3.209,36.188,3,32.85,3S.456,3.209.021,10.3H0v.158H0v8.357c.006,2.312,2.989,4.121,7.428,5.468a2.669,2.669,0,0,0-.11.617H7.3v.158h0V33.4C2.519,34.632.13,36.236.012,38.284H0v.158H0V46.8c0,1.61,1.455,2.975,3.83,4.112a2.68,2.68,0,0,0-.162.757H3.65v.158h0v8.357c.01,4.047,9.121,6.559,19.245,7.732a1.117,1.117,0,0,0,.221.045c.023,0,.043-.012.066-.013,1.952.22,3.935.392,5.9.515a1,1,0,0,0,.12.024c.023,0,.041-.012.063-.013,2.492.151,4.943.228,7.237.228s4.745-.077,7.237-.229c.022,0,.041.013.063.013.043,0,.079-.021.12-.024,1.963-.123,3.946-.293,5.9-.515.023,0,.043.012.066.012a1.117,1.117,0,0,0,.221-.045c10.124-1.173,19.234-3.687,19.245-7.734V51.667h-.019c-.085-1.492-1.357-2.736-3.868-3.777a2.72,2.72,0,0,0,.237-1.1V38.843c4.368-1.343,7.294-3.14,7.3-5.431V24.9ZM63.136,47.191l-.415.364a10.885,10.885,0,0,1-3.1,1.679v-5.8a18.106,18.106,0,0,0,3.65-1.674v5.035A.774.774,0,0,1,63.136,47.191ZM35.924,52.845c-.178,0-.356.007-.535.011-.434.009-.88.011-1.32.015V46.793q.5-.005,1-.015l.193,0q1.838-.035,3.67-.117v6.075q-.391.02-.786.036C37.417,52.8,36.677,52.827,35.924,52.845Zm-5.313.017q-.836-.015-1.663-.04l-.2-.007q-.995-.033-1.975-.082V46.659q1.829.086,3.67.117l.192,0q.5.009,1,.015v6.081c-.236,0-.472,0-.707-.006C30.82,52.867,30.716,52.863,30.61,52.862ZM8.635,50.088l-.118-.034V44.176c1.136.307,2.358.586,3.65.841v5.939q-1.675-.356-3.085-.742C8.933,50.171,8.78,50.131,8.635,50.088ZM34.28,60.163q.5.009,1,.015V66.26q-2.522-.024-4.867-.141V60.044q1.829.086,3.67.117Zm4.634,0q1.838-.035,3.67-.117v6.075q-2.343.115-4.867.141V60.177q.5-.005,1-.015Zm9.753-.55v6.042q-1.754.184-3.65.32V59.9C46.251,59.824,47.47,59.725,48.667,59.61Zm2.433-.263q1.882-.226,3.65-.513v5.974q-1.719.3-3.65.557Zm6.083-.948c1.292-.254,2.514-.534,3.65-.841v5.878c-1.084.313-2.3.616-3.65.9Zm-41.367,0v5.939c-1.346-.286-2.566-.589-3.65-.9V57.558C13.3,57.865,14.525,58.146,15.817,58.4Zm2.433.436q1.767.287,3.65.513v6.018q-1.929-.254-3.65-.557Zm6.083.775c1.2.116,2.416.214,3.65.3v6.068q-1.9-.133-3.65-.32Zm-3.019-7.276-.37-.038-.262-.028V46.227c1.2.116,2.416.214,3.65.3v6.063C23.312,52.513,22.3,52.43,21.315,52.334ZM18.25,45.963v6.018q-1.929-.254-3.65-.557V45.45Q16.367,45.736,18.25,45.963Zm23.927,6.565-.81.061V46.522c1.234-.082,2.453-.179,3.65-.3v6.042c-.752.079-1.521.153-2.31.218C42.53,52.5,42.354,52.515,42.177,52.529Zm5.273-.548V45.963q1.882-.226,3.65-.513v5.974Q49.381,51.727,47.45,51.981Zm6.083-6.965c1.292-.254,2.514-.534,3.65-.841v5.878c-1.084.313-2.3.616-3.65.9ZM36.9,39.458c-.915-.023-1.809-.058-2.688-.1l-.141-.006V33.276q1.829.086,3.67.117l.192,0q.5.009,1,.015v6.075c-.593-.006-1.19-.009-1.768-.022ZM8.517,22.07V16.192c1.136.307,2.358.586,3.65.841v5.939l-.45-.095c-.647-.142-1.279-.291-1.882-.448C9.375,22.311,8.938,22.191,8.517,22.07ZM30.63,18.8q.5.009,1,.015v6.075c-1.638-.016-3.266-.058-4.867-.139v-6.07q1.829.086,3.67.117Zm4.634,0q1.838-.035,3.67-.117v6.07c-.207.01-.405.024-.613.034l-.052,0c-.816.036-1.649.063-2.492.083l-.394.009c-.433.009-.876.01-1.315.015V18.811q.5-.005,1-.015Zm27.724.611-.034-.007-.443.344a11.833,11.833,0,0,1-2.894,1.5V15.448a18.106,18.106,0,0,0,3.65-1.674v5.035A.956.956,0,0,1,62.989,19.4ZM47.45,23.99V17.98q1.882-.226,3.65-.513V23.43C49.947,23.635,48.733,23.822,47.45,23.99Zm6.083-1.028V17.033c1.292-.254,2.514-.534,3.65-.841v5.864C56.094,22.374,54.866,22.677,53.534,22.962Zm-8.517-4.719v6.035q-1.763.186-3.65.322V18.538C42.6,18.457,43.82,18.358,45.017,18.243ZM20.684,24.28V18.243c1.2.116,2.416.214,3.65.3v6.057C23.1,24.506,21.873,24.405,20.684,24.28Zm-2.433-6.3v6.012c-.241-.032-.492-.057-.73-.09l-.457-.067q-1.055-.151-2.065-.322l-.4-.071V17.468Q16.367,17.752,18.25,17.98Zm13.082,21.2-.493-.036q-1.168-.091-2.281-.2l-.477-.049c-.033,0-.064-.009-.1-.011V32.843c1.2.116,2.416.214,3.65.3V39.2Zm-8.039-.909c-.482-.077-.934-.159-1.393-.24V32.068q1.767.287,3.65.513V38.6c-.745-.1-1.473-.2-2.173-.31Q23.335,38.279,23.293,38.274Zm-3.826-6.642v5.929q-2.017-.433-3.65-.914V30.791C16.953,31.1,18.175,31.379,19.467,31.632Zm-6.083-1.584v5.78c-1.913-.739-3.146-1.493-3.548-2.164l-.082-.136a.769.769,0,0,1-.021-.116V28.374A18.106,18.106,0,0,0,13.383,30.048Zm29.181,3.345q1.838-.035,3.67-.117v6.069c-1.6.079-3.224.123-4.867.14V33.411q.5-.005,1-.015Zm15.723,4.668c-.534.092-1.073.184-1.627.268-.318.049-.642.095-.968.141-.308.044-.628.082-.94.122V32.58q1.882-.226,3.65-.513V38.04ZM50.049,39.1c-.454.038-.922.062-1.382.095V33.138c1.234-.082,2.453-.179,3.65-.3v6.036c-.707.074-1.413.148-2.139.209Zm13.9-2.281c-.606.169-1.247.327-1.9.482-.3.071-.612.141-.928.209-.094.021-.193.039-.288.06V31.633c1.292-.254,2.514-.534,3.65-.841V36.67Zm6.6-11.84c-.112.826-1.984,1.925-5.327,2.958h0a81.666,81.666,0,0,1-19.576,2.925c-.437.018-.872.036-1.318.051-.364.012-.729.023-1.1.033-1.007.022-2.029.038-3.083.038s-2.076-.016-3.083-.039c-.37-.009-.735-.021-1.1-.033-.447-.013-.882-.033-1.318-.051a81.656,81.656,0,0,1-19.576-2.925h0C11.758,26.911,9.889,25.821,9.75,25a.286.286,0,0,1,.021-.072c.083.021.175.038.259.058.476.113.964.223,1.46.327,2.418.521,5.1.948,7.951,1.274.01,0,.017,0,.026,0h.006c1.944.221,3.962.4,6.032.518.016,0,.029.009.045.009s.015,0,.023,0q2.236.131,4.528.186c.936.023,1.854.035,2.748.035.639,0,1.293-.007,1.954-.019,8.84-.136,17.034-1.187,22.735-2.817.263-.074.52-.151.773-.228.155-.047.313-.094.462-.141.44-.141.863-.286,1.27-.437l.208-.08c.344-.13.675-.265.992-.4.091-.04.185-.079.274-.119.337-.152.663-.308.965-.47.136-.072.254-.146.382-.219.146-.084.292-.169.427-.256.077-.049.168-.095.241-.144C68.98,23.183,70.415,24.476,70.554,24.979ZM32.85,5.433c20.062,0,30.209,3.158,30.4,4.971-.147.822-2.015,1.909-5.322,2.931h0a81.666,81.666,0,0,1-19.576,2.925c-.437.018-.872.036-1.318.051-.364.012-.729.023-1.1.033-1.007.023-2.029.039-3.083.039s-2.076-.016-3.083-.039c-.37-.009-.735-.021-1.1-.033-.447-.013-.882-.033-1.318-.051A81.656,81.656,0,0,1,7.773,13.336h0C4.465,12.314,2.6,11.227,2.452,10.4,2.641,8.592,12.789,5.433,32.85,5.433ZM2.433,18.812V13.774a18.106,18.106,0,0,0,3.65,1.674v5.825C3.717,20.386,2.436,19.5,2.433,18.812ZM8.327,35.65c.018.019.046.037.064.056,1.666,1.681,5.115,3,9.409,3.988l.3.068q.473.106.959.207a93.835,93.835,0,0,0,13.779,1.747h.013q2.471.144,5.053.192c.762.016,1.511.026,2.244.026.84,0,1.7-.01,2.577-.03,1.591-.033,3.16-.1,4.706-.189.006,0,.011,0,.017,0s.019-.006.03-.006a94.1,94.1,0,0,0,14.045-1.8,22.042,22.042,0,0,1-3.6,1.406h0A83.958,83.958,0,0,1,36.9,44.3c-.274.009-.544.018-.821.026-.3.007-.6.012-.9.018-.765.012-1.535.023-2.326.023-1.054,0-2.076-.016-3.083-.039-.37-.009-.735-.021-1.1-.033-.447-.013-.882-.033-1.318-.051A81.656,81.656,0,0,1,7.773,41.319h0c-3.346-1.034-5.218-2.134-5.327-2.96C2.582,37.9,3.812,36.757,8.327,35.65ZM2.433,46.8V41.757a18.106,18.106,0,0,0,3.65,1.674v5.8l-.695-.27-.015.015C3.464,48.186,2.436,47.409,2.433,46.8Zm3.65,13.383V55.141a18.106,18.106,0,0,0,3.65,1.674V62.64C7.367,61.753,6.086,60.864,6.083,60.179ZM63.267,62.64V56.816a18.106,18.106,0,0,0,3.65-1.674v5.035C66.916,60.862,65.634,61.752,63.267,62.64ZM66.9,51.761c-.133.824-2,1.916-5.324,2.943h0A81.666,81.666,0,0,1,42,57.629c-.437.018-.872.037-1.318.051-.364.012-.729.023-1.1.033-1.007.022-2.029.038-3.083.038s-2.077-.016-3.085-.039c-.366-.009-.728-.021-1.089-.033-.449-.015-.887-.033-1.326-.051A81.667,81.667,0,0,1,11.423,54.7h0c-3.218-.994-5.077-2.05-5.311-2.865.363.127.739.249,1.124.37l.117.035q.493.151,1.009.293c.13.036.262.073.394.108.195.052.394.1.594.153a88.762,88.762,0,0,0,16.194,2.3h.01c1.886.112,3.812.181,5.759.2.518.01,1.033.015,1.538.015.67,0,1.357-.009,2.051-.021,1.775-.029,3.527-.095,5.24-.2l.01,0c.006,0,.01,0,.016,0,2.087-.125,4.106-.3,6.047-.527.007,0,.013,0,.021,0,.027,0,.049-.013.075-.016,2.161-.249,4.21-.556,6.111-.913.392-.072.777-.146,1.159-.223l.256-.052A32.692,32.692,0,0,0,62.674,50.5c.117-.063.226-.129.337-.193.135-.08.264-.162.389-.245s.252-.148.359-.225C66.161,50.689,66.822,51.455,66.9,51.761Zm.016-15.887V30.049a18.106,18.106,0,0,0,3.65-1.674V33.41C70.566,34.095,69.284,34.985,66.917,35.873Z" transform="translate(914 1089.915)"/>
    <g id="ban" transform="translate(980 1081.054)">
      <g id="Group_62" data-name="Group 62">
        <g id="Group_61" data-name="Group 61">
          <path id="Path_77" data-name="Path 77" class="cls-2" d="M16.473,0A16.473,16.473,0,1,0,32.946,16.473,16.492,16.492,0,0,0,16.473,0Zm0,30.547A14.074,14.074,0,1,1,30.547,16.473,14.09,14.09,0,0,1,16.473,30.547Z"/>
        </g>
      </g>
      <g id="Group_64" data-name="Group 64" transform="translate(5.109 5.148)">
        <g id="Group_63" data-name="Group 63" transform="translate(0 0)">
          <rect id="Rectangle_30" data-name="Rectangle 30" class="cls-2" width="29.743" height="2.399" transform="translate(0 21.031) rotate(-45)"/>
        </g>
      </g>
    </g>
  </g>
</svg>
