<svg id="payu" xmlns="http://www.w3.org/2000/svg" viewBox="0 0 94.4 58.996">
  <defs>
    <style>
      .cls-1 {
        fill: #f2f2f2;
      }

      .cls-2 {
        fill: #75b500;
      }
    </style>
  </defs>
  <g id="Layer_1" data-name="Layer 1" transform="translate(0 0)">
    <path id="Path_361" data-name="Path 361" class="cls-1" d="M94.4,55.854A3.142,3.142,0,0,1,91.254,59H3.147A3.142,3.142,0,0,1,0,55.854V3.147A3.147,3.147,0,0,1,3.147,0h88.1A3.147,3.147,0,0,1,94.4,3.147Z" transform="translate(0 0)"/>
    <path id="Path_362" data-name="Path 362" class="cls-2" d="M57.868,56.186a3.649,3.649,0,0,0-2.12-2.461,5.9,5.9,0,0,0-1.9-.468c-1.517-.131-3.059-.035-4.563-.066a4.685,4.685,0,0,0-1.158.131,1.971,1.971,0,0,0-1.543,1.49,3.247,3.247,0,0,0-.109.913v6.188h0v6.39c0,.559.166.747.717.817a2.675,2.675,0,0,0,.376,0c.874,0,1.084-.21,1.084-1.088V63.918c0-.573-.079-.511.533-.516h3.549a9.143,9.143,0,0,0,1.691-.14A3.935,3.935,0,0,0,57.838,60.5,7.57,7.57,0,0,0,57.868,56.186ZM55.928,58.9A2.2,2.2,0,0,1,53.7,61.313c-1.6.135-3.217.031-4.807.057-.262,0-.227-.17-.227-.337V58.581h0V56.09c0-.476.245-.782.682-.787a33.577,33.577,0,0,1,4.449.048A2.2,2.2,0,0,1,55.919,57.7C55.941,58.1,55.945,58.507,55.928,58.9Z" transform="translate(-26.165 -29.942)"/>
    <path id="Path_363" data-name="Path 363" class="cls-2" d="M107.8,62.03c-1.079-.14-1.4.07-1.683,1.114a.234.234,0,0,1-.035.149c-.651,2.71-1.311,5.424-1.962,8.133a1.12,1.12,0,0,1-1.433.979c-.621-.07-.813-.538-.953-1.031-.524-1.888-1.036-3.78-1.556-5.682-.258-.944-.507-1.892-.769-2.836a.957.957,0,0,0-.708-.8,2.919,2.919,0,0,0-1.049,0,.485.485,0,0,0-.437.559,2.185,2.185,0,0,0,.087.437q.717,2.622,1.438,5.275c.376,1.368.7,2.753,1.158,4.1a2.48,2.48,0,0,0,2.74,1.875c.739-.044.712-.052.437.677a2.832,2.832,0,0,1-2.622,1.971,2.138,2.138,0,0,0-.406.07.459.459,0,0,0-.328.332,1.128,1.128,0,0,0,1.171,1.5,4.37,4.37,0,0,0,4.021-2.762,11.118,11.118,0,0,0,.664-1.923l2.308-9.217c.175-.708.358-1.416.516-2.128C108.479,62.319,108.3,62.091,107.8,62.03Z" transform="translate(-54.723 -34.899)"/>
    <path id="Path_364" data-name="Path 364" class="cls-2" d="M82.829,67.558V64.936A3.374,3.374,0,0,0,80,61.514a12.084,12.084,0,0,0-4.842-.061c-.9.162-1.027.332-1.014,1.224,0,.638.293.874.909.747.332-.07.664-.131,1-.17a9.217,9.217,0,0,1,3.155.039,1.748,1.748,0,0,1,1.5,1.875c0,.3,0,.607,0,.9s-.079.4-.38.393H78.293a10.926,10.926,0,0,0-2.662.245,3.156,3.156,0,0,0-2.662,3.059A3.375,3.375,0,0,0,75.478,73.6a8.334,8.334,0,0,0,5.161-.135,3.029,3.029,0,0,0,2.133-2.718C82.9,69.7,82.8,68.629,82.829,67.558Zm-2.111.957v1.473a1.684,1.684,0,0,1-1.464,1.853,6.022,6.022,0,0,1-2.692.057,1.849,1.849,0,0,1-1.11-2.946,2,2,0,0,1,1.385-.673,14.138,14.138,0,0,1,2.107-.092h1.433c.245-.013.354.052.341.328Z" transform="translate(-41.066 -34.474)"/>
    <path id="Path_365" data-name="Path 365" class="cls-2" d="M142.739,50.76H139.2a.559.559,0,0,0-.529.542,3.932,3.932,0,0,0,0,.437l-.066.083h-.153a1.674,1.674,0,0,0-.843.052l.437.026h0l-.437-.026c-.874.144-1.167.468-1.206,1.346v8a9.868,9.868,0,0,1-.031,1.018,1.713,1.713,0,0,1-1.355,1.613,5.2,5.2,0,0,1-2.832,0,1.683,1.683,0,0,1-1.311-1.473,5.3,5.3,0,0,1-.061-.787q0-4.078,0-8.155a3.422,3.422,0,0,0-.044-.6,1.031,1.031,0,0,0-.874-.913,7.714,7.714,0,0,0-2.329-.07c-.953.1-1.311.485-1.311,1.451,0,2.933-.035,5.865,0,8.793a5.269,5.269,0,0,0,2.718,4.856,8.343,8.343,0,0,0,4.156,1.005h.153a9.558,9.558,0,0,0,2.474-.149,6.438,6.438,0,0,0,2.972-1.215h0a3.78,3.78,0,0,0,1.2-1.18,5.716,5.716,0,0,0,1-3.339V55.738c0-.288.074-.4.38-.385.437.026.874,0,1.281,0a.6.6,0,0,0,.673-.607V51.315a.533.533,0,0,0-.52-.555Zm-15.956,1.927a.109.109,0,0,1-.087,0,.109.109,0,0,0,.087,0,.2.2,0,0,0,.157-.135.2.2,0,0,1-.14.135Zm.219,10.9h0c.052,0,.066-.048.066-.092.017.044,0,.083-.061.092ZM129.891,53.1h0Zm7.272-.14a.1.1,0,0,1,.07-.1.1.1,0,0,0-.052.079Zm.717-.494a.1.1,0,0,1-.1-.083c0,.052.048.079.1.083a.122.122,0,0,0,.114-.127.122.122,0,0,1-.1.109Zm.3-.559h0a.284.284,0,0,0,.083.114.284.284,0,0,1-.066-.131Zm2.378,3.5h-.94c-.76,0-.913-.144-.988-.909a.494.494,0,0,0-.14.175.349.349,0,0,0-.022.092.348.348,0,0,1,.022-.092.494.494,0,0,1,.14-.175V51.857h0c.411.039.826.052,1.232.122a1.084,1.084,0,0,1,1.018,1.149c.026.651,0,1.311,0,1.958.044.2-.074.284-.323.28Z" transform="translate(-71.065 -28.576)"/>
    <path id="Path_366" data-name="Path 366" class="cls-2" d="M168.608,43.383c0-.437-.149-.568-.568-.573H165.78c-.406,0-.577.17-.577.573v2.334a.489.489,0,0,0,.559.555h2.294c.4,0,.538-.144.551-.555s0-.778,0-1.167Z" transform="translate(-93 -24.1)"/>
    <path id="Path_367" data-name="Path 367" class="cls-2" d="M160.287,39.835h1.582c.249,0,.358-.144.358-.385V38.7h0v-.756a.389.389,0,0,0-.437-.437h-1.433c-.319,0-.437.149-.437.459v1.508a.35.35,0,0,0,.367.363Z" transform="translate(-90.028 -21.112)"/>
  </g>
</svg>
