<svg xmlns="http://www.w3.org/2000/svg" viewBox="0 0 68.82 68.818">
  <defs>
    <style>
      .cls-1 {
        fill: #002f7d;
      }

      .cls-2 {
        fill: #f58634;
      }
    </style>
  </defs>
  <g id="placeholder" transform="translate(0.001)">
    <path id="Path_12" data-name="Path 12" class="cls-1" d="M32.383,28.058a8.029,8.029,0,1,0-8.029-8.029A8.038,8.038,0,0,0,32.383,28.058Zm0-13.764a5.735,5.735,0,1,1-5.735,5.735A5.741,5.741,0,0,1,32.383,14.294Z" transform="translate(3.579 1.764)"/>
    <path id="Path_13" data-name="Path 13" class="cls-2" d="M34,62.8l17.6-25.413c6.6-8.8,5.644-23.26-2.043-30.947a21.993,21.993,0,0,0-31.106,0c-7.688,7.687-8.644,22.15-2.069,30.913ZM20.064,8.064a19.7,19.7,0,0,1,27.862,0c6.938,6.938,7.792,20,1.8,27.985L34,58.774,18.235,36.015C12.271,28.064,13.125,15,20.064,8.064Z" transform="translate(1.764 0)"/>
    <path id="Path_14" data-name="Path 14" class="cls-1" d="M1.147,57.629l-.811.811a1.147,1.147,0,1,0,1.622,1.622l.811-.811a1.147,1.147,0,1,0-1.622-1.622Z" transform="translate(0 8.42)"/>
    <path id="Path_15" data-name="Path 15" class="cls-1" d="M8.763,52a1.147,1.147,0,1,0,0,2.294H10.85a1.147,1.147,0,1,0,0-2.294Z" transform="translate(1.119 7.642)"/>
    <path id="Path_16" data-name="Path 16" class="cls-1" d="M6.715,53.768a1.146,1.146,0,0,0-1.622,0L3.617,55.244a1.147,1.147,0,1,0,1.622,1.622L6.715,55.39A1.146,1.146,0,0,0,6.715,53.768Z" transform="translate(0.482 7.853)"/>
    <path id="Path_17" data-name="Path 17" class="cls-1" d="M19.686,52a1.147,1.147,0,1,0,0,2.294h2.087a1.147,1.147,0,1,0,0-2.294Z" transform="translate(2.725 7.642)"/>
    <path id="Path_18" data-name="Path 18" class="cls-1" d="M14.224,52a1.147,1.147,0,1,0,0,2.294h2.089a1.147,1.147,0,1,0,0-2.294Z" transform="translate(1.922 7.642)"/>
    <path id="Path_19" data-name="Path 19" class="cls-1" d="M25.147,52a1.147,1.147,0,0,0,0,2.294h1.147a1.147,1.147,0,1,0,0-2.294Z" transform="translate(3.527 7.642)"/>
    <path id="Path_20" data-name="Path 20" class="cls-1" d="M1.147,54.751a1.144,1.144,0,0,0,.811-.336L6.4,49.969a2.067,2.067,0,0,1,.4-.312l.221-.119a1.045,1.045,0,0,1,.122-.067l.429-.132a2.418,2.418,0,0,1,.453-.046h17.2a1.147,1.147,0,1,0,0-2.294H8.029a4.733,4.733,0,0,0-.907.091,3.209,3.209,0,0,0-.32.091l-.15.045a3.1,3.1,0,0,0-.374.122,3.308,3.308,0,0,0-.392.2l-.109.06a2.688,2.688,0,0,0-.295.167,4.582,4.582,0,0,0-.7.575L.335,52.793a1.147,1.147,0,0,0,.812,1.958Z" transform="translate(0 6.907)"/>
    <path id="Path_21" data-name="Path 21" class="cls-1" d="M58.44,49.1a1.144,1.144,0,0,0,.811-.336l.811-.811a1.147,1.147,0,1,0-1.622-1.622l-.811.811A1.147,1.147,0,0,0,58.44,49.1Z" transform="translate(8.42 6.76)"/>
    <path id="Path_22" data-name="Path 22" class="cls-1" d="M54.831,50.063,53.1,51.8a1.147,1.147,0,1,0,1.622,1.622l1.732-1.732a1.147,1.147,0,0,0-1.622-1.622Z" transform="translate(7.754 7.308)"/>
    <path id="Path_23" data-name="Path 23" class="cls-1" d="M47.822,52a1.147,1.147,0,1,0,0,2.294h2.449a1.147,1.147,0,0,0,0-2.294Z" transform="translate(6.86 7.642)"/>
    <path id="Path_24" data-name="Path 24" class="cls-1" d="M41.417,52a1.147,1.147,0,1,0,0,2.294h2.449a1.147,1.147,0,1,0,0-2.294Z" transform="translate(5.918 7.642)"/>
    <path id="Path_25" data-name="Path 25" class="cls-1" d="M36.147,52a1.147,1.147,0,0,0,0,2.294h1.147a1.147,1.147,0,0,0,0-2.294Z" transform="translate(5.144 7.642)"/>
    <path id="Path_26" data-name="Path 26" class="cls-1" d="M65.978,52.578l-4.446,4.446a2.1,2.1,0,0,1-.4.311l-.216.117a1.308,1.308,0,0,1-.136.072.891.891,0,0,1-.111.033l-.319.1a2.219,2.219,0,0,1-.445.046H8.168l-1.74,1.4a1.147,1.147,0,1,0,1.437,1.787l1.111-.893H59.907A4.5,4.5,0,0,0,60.8,59.9a2.777,2.777,0,0,0,.338-.093l.143-.042a3.137,3.137,0,0,0,.384-.127,3.493,3.493,0,0,0,.387-.2l.114-.062a2.515,2.515,0,0,0,.283-.161,4.546,4.546,0,0,0,.7-.577L67.6,54.2a1.147,1.147,0,0,0-1.622-1.622Z" transform="translate(0.882 7.678)"/>
    <path id="Path_27" data-name="Path 27" class="cls-1" d="M39,48.588a1.147,1.147,0,0,0,1.147,1.147H54.108l3.777-3.777a1.147,1.147,0,1,0-1.622-1.622l-3.1,3.1H40.147A1.147,1.147,0,0,0,39,48.588Z" transform="translate(5.732 6.466)"/>
  </g>
</svg>
