<svg xmlns="http://www.w3.org/2000/svg" viewBox="0 0 73.001 73.001">
  <defs>
    <style>
      .cls-1 {
        fill: #f58634;
      }

      .cls-2 {
        fill: #002f7d;
      }
    </style>
  </defs>
  <g id="road-sign" transform="translate(0 0)">
    <path id="Path_28" data-name="Path 28" class="cls-1" d="M71.817,64h-14.6a1.217,1.217,0,1,0,0,2.433h14.6a1.217,1.217,0,1,0,0-2.433Zm0,0" transform="translate(-47.483 -54.266)"/>
    <path id="Path_29" data-name="Path 29" class="cls-1" d="M186.078,64.365a1.263,1.263,0,0,0-.4-.255,1.217,1.217,0,0,0-1.327.255,1.257,1.257,0,0,0-.255.4,1.217,1.217,0,1,0,2.239,0A1.415,1.415,0,0,0,186.078,64.365Zm0,0" transform="translate(-156.014 -54.279)"/>
    <path id="Path_30" data-name="Path 30" class="cls-1" d="M71.817,304h-14.6a1.217,1.217,0,0,0,0,2.433h14.6a1.217,1.217,0,0,0,0-2.433Zm0,0" transform="translate(-47.483 -257.766)"/>
    <path id="Path_31" data-name="Path 31" class="cls-1" d="M186.079,304.437a1.274,1.274,0,0,0-1.728,0,1.415,1.415,0,0,0-.255.4,1.2,1.2,0,0,0,.255,1.326,1.412,1.412,0,0,0,.4.255,1.2,1.2,0,0,0,1.582-1.581A1.416,1.416,0,0,0,186.079,304.437Zm0,0" transform="translate(-156.015 -257.85)"/>
    <path id="Path_32" data-name="Path 32" class="cls-2" d="M66.56,23.474a1.214,1.214,0,0,0-.86-.356H40.15V1.217A1.217,1.217,0,0,0,38.934,0H34.067A1.216,1.216,0,0,0,32.85,1.217v3.65H7.3a1.216,1.216,0,0,0-.86.356L.356,11.307a1.216,1.216,0,0,0,0,1.72L6.44,19.111a1.216,1.216,0,0,0,.86.356H32.85v21.9H7.3a1.216,1.216,0,0,0-.86.356L.356,47.808a1.216,1.216,0,0,0,0,1.72L6.44,55.611a1.216,1.216,0,0,0,.86.356H32.85v7.3H31.634a6.09,6.09,0,0,0-6.083,6.083v1.217H20.683a1.217,1.217,0,0,0,0,2.433H52.317a1.217,1.217,0,1,0,0-2.433H47.451V69.351a6.091,6.091,0,0,0-6.083-6.083H40.15V37.718H65.7a1.214,1.214,0,0,0,.86-.356l6.083-6.083a1.216,1.216,0,0,0,0-1.72ZM7.8,17.034,2.936,12.167,7.8,7.3H32.85v9.734Zm0,36.5L2.936,48.668,7.8,43.8H32.85v9.734ZM45.017,69.351v1.217H27.983V69.351a3.65,3.65,0,0,1,3.65-3.65h9.734A3.65,3.65,0,0,1,45.017,69.351Zm-9.734-6.083V2.434h2.433V63.268ZM65.2,35.284H40.15V25.551H65.2l4.867,4.867Zm0,0"/>
    <path id="Path_33" data-name="Path 33" class="cls-1" d="M327.817,184h-14.6a1.217,1.217,0,1,0,0,2.433h14.6a1.217,1.217,0,0,0,0-2.433Zm0,0" transform="translate(-264.549 -156.016)"/>
    <path id="Path_34" data-name="Path 34" class="cls-1" d="M281.678,184.069a1.178,1.178,0,0,0-1.582.657,1.217,1.217,0,1,0,2.337.462,1.279,1.279,0,0,0-.353-.864A1.135,1.135,0,0,0,281.678,184.069Zm0,0" transform="translate(-237.415 -155.988)"/>
    <path id="Path_35" data-name="Path 35" class="cls-1" d="M371.65,466.433a1.217,1.217,0,0,0,0-2.433h-2.433a1.217,1.217,0,1,0,0,2.433Zm0,0" transform="translate(-312.033 -393.432)"/>
    <path id="Path_36" data-name="Path 36" class="cls-1" d="M70.083,466.433a1.217,1.217,0,1,0,0-2.433H65.217a1.217,1.217,0,0,0,0,2.433Zm0,0" transform="translate(-54.267 -393.432)"/>
  </g>
</svg>
