<svg id="Visa" xmlns="http://www.w3.org/2000/svg" viewBox="0 0 94.4 58.996">
  <defs>
    <style>
      .cls-1 {
        fill: #f2f2f2;
      }

      .cls-2 {
        fill: #0066b2;
      }

      .cls-3 {
        fill: #f9a533;
      }
    </style>
  </defs>
  <g id="Layer_1" data-name="Layer 1" transform="translate(0 0)">
    <path id="Path_206" data-name="Path 206" class="cls-1" d="M94.4,55.854A3.142,3.142,0,0,1,91.254,59H3.147A3.142,3.142,0,0,1,0,55.854V3.147A3.147,3.147,0,0,1,3.147,0h88.1A3.147,3.147,0,0,1,94.4,3.147Z" transform="translate(0 0)"/>
    <path id="Path_207" data-name="Path 207" class="cls-2" d="M93.461,64.963H88.85L91.73,47.25h4.611Z" transform="translate(-50.019 -26.6)"/>
    <path id="Path_208" data-name="Path 208" class="cls-2" d="M59.362,47.25l-4.41,12.18-.52-2.622h0l-1.551-7.963a1.973,1.973,0,0,0-2.185-1.6H43.423l-.083.3a17.123,17.123,0,0,1,4.807,2.023l4,15.388h4.807L64.314,47.25Z" transform="translate(-24.399 -26.6)"/>
    <path id="Path_209" data-name="Path 209" class="cls-2" d="M147.3,64.954h4.235l-3.71-17.713h-3.706a2.115,2.115,0,0,0-2.128,1.311l-6.875,16.4h4.807l.961-2.622h5.865Zm-5.091-6.267,2.426-6.63,1.355,6.63Z" transform="translate(-76.067 -26.591)"/>
    <path id="Path_210" data-name="Path 210" class="cls-2" d="M119.057,51.1l.656-3.8a13.269,13.269,0,0,0-4.126-.778c-2.286,0-7.722,1-7.722,5.865,0,4.576,6.381,4.633,6.381,7.036s-5.721,1.971-7.609.437l-.686,3.973a12.915,12.915,0,0,0,5.205,1c3.147,0,7.893-1.63,7.893-6.062,0-4.606-6.433-5.035-6.433-7.036S117.086,50.012,119.057,51.1Z" transform="translate(-59.646 -26.189)"/>
    <path id="Path_211" data-name="Path 211" class="cls-3" d="M54.432,56.808l-1.551-7.963a1.973,1.973,0,0,0-2.185-1.6H43.423l-.083.3a17.836,17.836,0,0,1,6.844,3.435A13.806,13.806,0,0,1,54.432,56.808Z" transform="translate(-24.399 -26.6)"/>
  </g>
</svg>
