<svg xmlns="http://www.w3.org/2000/svg" viewBox="0 0 544.345 68.412">
  <defs>
    <style>
      .cls-1 {
        fill: #2957a4;
      }

      .cls-1, .cls-2, .cls-3, .cls-4 {
        fill-rule: evenodd;
      }

      .cls-2 {
        fill: #3e4095;
      }

      .cls-3 {
        fill: #fefefe;
      }

      .cls-4 {
        fill: #f58634;
      }
    </style>
  </defs>
  <g id="Group_69" data-name="Group 69" transform="translate(-137.595 -27.162)">
    <g id="_362277600" transform="translate(137.595 27.162)">
      <g id="Group_3" data-name="Group 3">
        <g id="Group_1" data-name="Group 1" transform="translate(53.133 3.089)">
          <path id="Path_1" data-name="Path 1" class="cls-1" d="M263.194,162c26.569,0,48.194,14.52,48.194,32.13s-21.626,32.13-48.194,32.13S215,211.739,215,194.13,236.626,162,263.194,162Z" transform="translate(-215 -162)"/>
          <path id="Path_2" data-name="Path 2" class="cls-2" d="M224,216.385c51.284-2.78,97.624-.927,78.779,30.894,17.918-9.577,27.5-26.569-12.049-32.439-21.935-3.089-44.8-2.163-66.422,1.545Z" transform="translate(-221.22 -197.23)"/>
          <path id="Path_3" data-name="Path 3" class="cls-2" d="M307.779,195c-31.821,16.992-59.007,28.731-78.779,34.91a34.7,34.7,0,0,0,5.561,6.179l4.634-1.854c33.056-13.593,54.682-25.642,71.365-37.073A16.98,16.98,0,0,0,307.779,195Z" transform="translate(-224.675 -184.805)"/>
        </g>
        <g id="Group_2" data-name="Group 2">
          <path id="Path_4" data-name="Path 4" class="cls-3" d="M224,216.385c51.284-2.78,97.624-.927,78.779,30.894,17.918-9.577,27.5-26.569-12.049-32.439-21.935-3.089-44.8-2.163-66.422,1.545Z" transform="translate(-168.087 -194.141)"/>
          <path id="Path_5" data-name="Path 5" class="cls-3" d="M307.779,195c-31.821,16.992-59.007,28.731-78.779,34.91a34.7,34.7,0,0,0,5.561,6.179l4.634-1.854c33.056-13.593,54.682-25.642,71.365-37.073A16.98,16.98,0,0,0,307.779,195Z" transform="translate(-171.542 -181.716)"/>
          <path id="Path_6" data-name="Path 6" class="cls-4" d="M100.472,200.194c-42.325,13.593-51.9,3.707-5.87-28.422-6.179,1.236-82.178,51.593-37.69,48.5,17.3-1.236,33.056-7.415,49.121-13.9Zm78.779-34.91c7.723-4.016,15.447-8.341,23.788-13.284-6.488,4.943-12.975,10.195-21.008,15.447Z" transform="translate(-43.014 -152)"/>
        </g>
      </g>
      <g id="Group_4" data-name="Group 4" transform="translate(175.164 9.268)">
        <path id="Path_7" data-name="Path 7" class="cls-4" d="M624.927,305.3,624,288.309h2.163l.309,8.341V301.9a21.248,21.248,0,0,1,2.163-4.016l5.252-9.577h2.472l.618,9.886v4.016a12.152,12.152,0,0,1,.618-1.854c.618-1.236.927-2.163,1.236-2.78L643.772,288h2.162l-8.65,16.992h-2.471l-.618-10.2v-3.089a18.209,18.209,0,0,0-1.236,2.472l-5.87,10.813h-2.472Zm27.5-4.016,2.162.309a7.3,7.3,0,0,1-1.854,2.78,4.925,4.925,0,0,1-3.707,1.236,5.82,5.82,0,0,1-2.471-.618,5.245,5.245,0,0,1-1.854-1.854,9.022,9.022,0,0,1-.618-2.78,10.667,10.667,0,0,1,.927-4.016,7.3,7.3,0,0,1,2.472-2.78,5.96,5.96,0,0,1,3.089-.927,4.22,4.22,0,0,1,3.4,1.236,4.925,4.925,0,0,1,1.236,3.707,3.919,3.919,0,0,1-.309,1.854h-8.959v.618c0,1.236.309,2.163.927,2.471a2.671,2.671,0,0,0,1.854.927,5.728,5.728,0,0,0,2.163-.618,5.543,5.543,0,0,0,1.545-2.163Zm-6.179-3.089h6.8v-.309a3.507,3.507,0,0,0-.927-2.471,2.8,2.8,0,0,0-2.162-.927,4.108,4.108,0,0,0-2.471.927,5.973,5.973,0,0,0-1.545,2.78Zm16.683,7.106,2.471-12.358h2.163l-.309,2.163a9.861,9.861,0,0,1,2.163-1.854,4.392,4.392,0,0,1,1.854-.618,3.312,3.312,0,0,1,1.854.618,1.7,1.7,0,0,1,.927,1.545l1.854-1.854a5.728,5.728,0,0,1,2.163-.618,3.6,3.6,0,0,1,2.163.618,2.607,2.607,0,0,1,.618,2.163,5.437,5.437,0,0,1-.309,1.854l-1.545,7.723h-2.162l1.545-8.032a13.383,13.383,0,0,1,.309-1.545,1.092,1.092,0,0,0-1.236-1.236,4.392,4.392,0,0,0-1.854.618,3.724,3.724,0,0,0-1.545,1.545,14.363,14.363,0,0,0-.927,2.78l-1.236,5.87h-2.163l1.854-8.341c0-.618.309-.927.309-1.236a1.092,1.092,0,0,0-1.236-1.236,4.392,4.392,0,0,0-1.854.618,3.724,3.724,0,0,0-1.545,1.545,14.363,14.363,0,0,0-.927,2.78l-1.236,5.87h-2.162Zm27.8-1.545a7.742,7.742,0,0,1-2.162,1.236,4.582,4.582,0,0,1-2.163.309,3.777,3.777,0,0,1-2.781-.927,3.509,3.509,0,0,1-.927-2.471,3.917,3.917,0,0,1,.309-1.854,2.411,2.411,0,0,1,1.236-1.236,4.391,4.391,0,0,1,1.854-.618,23.957,23.957,0,0,1,2.78-.309c1.236,0,2.162-.309,2.78-.309a2.785,2.785,0,0,0,.309-1.545,1.605,1.605,0,0,0-.618-1.236,4.094,4.094,0,0,0-4.325,0,3.085,3.085,0,0,0-1.236,1.545l-2.163-.309a4.931,4.931,0,0,1,2.163-2.78,6.228,6.228,0,0,1,3.4-.927,4.925,4.925,0,0,1,3.707,1.236,2.8,2.8,0,0,1,.927,2.163,5.26,5.26,0,0,1-.309,2.163l-.618,3.089a7.677,7.677,0,0,0-.309,2.472,3.359,3.359,0,0,0,.309,1.545h-2.163a13.385,13.385,0,0,1-.309-1.545Zm.618-4.634c-.309,0-.618.309-.927.309a3.359,3.359,0,0,0-1.545.309,16.634,16.634,0,0,0-2.471.309c-.618.309-.927.309-1.236.927-.309.309-.309.618-.309,1.236s.309.927.618,1.545a2.612,2.612,0,0,0,1.854.618,4.39,4.39,0,0,0,1.854-.618,3.722,3.722,0,0,0,1.545-1.545,14.362,14.362,0,0,0,.927-2.78Zm4.016,6.179,3.4-16.992h2.163l-2.163,10.5,6.179-5.87h2.78l-5.252,4.634,3.089,7.723H703.4l-2.472-6.179-2.471,2.163-.927,4.016Zm20.7-4.016,2.162.309a7.3,7.3,0,0,1-1.854,2.78,4.924,4.924,0,0,1-3.707,1.236,5.82,5.82,0,0,1-2.471-.618,5.247,5.247,0,0,1-1.854-1.854,9.02,9.02,0,0,1-.618-2.78,10.664,10.664,0,0,1,.927-4.016,7.294,7.294,0,0,1,2.471-2.78,5.961,5.961,0,0,1,3.089-.927,4.22,4.22,0,0,1,3.4,1.236,4.925,4.925,0,0,1,1.236,3.707,3.917,3.917,0,0,1-.309,1.854h-8.959v.618c0,1.236.309,2.163.927,2.471a2.67,2.67,0,0,0,1.854.927,5.727,5.727,0,0,0,2.162-.618,5.542,5.542,0,0,0,1.545-2.163Zm-6.179-3.089h6.8v-.309a3.508,3.508,0,0,0-.927-2.471,2.8,2.8,0,0,0-2.162-.927,4.108,4.108,0,0,0-2.472.927,5.973,5.973,0,0,0-1.545,2.78Zm16.065,11.74v-1.854c.309,0,.927.309,1.236.309a1.135,1.135,0,0,0,.927-.309,8.445,8.445,0,0,0,1.236-1.545l.618-1.236L727.8,292.943h2.162l.927,6.179c.309,1.236.309,2.472.618,3.707l5.561-9.886h2.163l-7.724,13.9c-.618,1.236-1.545,2.162-1.854,2.78a4.465,4.465,0,0,1-2.163.618A2.785,2.785,0,0,1,725.95,309.935Zm12.975-9.268a7.691,7.691,0,0,1,2.162-5.87,6.287,6.287,0,0,1,4.634-1.854,4.369,4.369,0,0,1,4.943,4.943,8.552,8.552,0,0,1-.927,4.016,5.451,5.451,0,0,1-2.471,2.78,6.228,6.228,0,0,1-3.4.927,5.821,5.821,0,0,1-2.472-.618c-.927-.309-1.236-.927-1.854-1.854A5.821,5.821,0,0,1,738.925,300.666Zm2.162-.309c0,1.236.309,2.163.927,2.471a2.8,2.8,0,0,0,2.163.927,1.858,1.858,0,0,0,1.236-.309c.309-.309.927-.309,1.236-.927.309-.309.618-.927.927-1.236.309-.618.618-.927.618-1.545a5.258,5.258,0,0,0,.309-2.163,3.041,3.041,0,0,0-.927-2.472,2.8,2.8,0,0,0-2.163-.927,3.92,3.92,0,0,0-1.854.309,5.425,5.425,0,0,0-1.545,1.236,15.059,15.059,0,0,0-.927,2.163,6.032,6.032,0,0,0-.309,2.163Zm18.845,2.78c-1.545,1.545-3.089,2.471-4.634,2.471a2.4,2.4,0,0,1-2.162-.927,2.67,2.67,0,0,1-.927-1.854,10.643,10.643,0,0,1,.309-2.78l1.545-7.106h2.162l-1.545,7.723a13.378,13.378,0,0,1-.309,1.545c0,.309,0,.927.309.927.309.309.618.309,1.236.309a3.918,3.918,0,0,0,1.854-.309,5.427,5.427,0,0,0,1.545-1.236,10.3,10.3,0,0,0,.927-1.854c.309-.309.309-1.236.618-2.163l1.236-5.252h2.163l-2.471,12.358h-1.854l.309-2.163Zm4.634,2.163,2.471-12.358h1.854l-.618,2.472a13.429,13.429,0,0,1,1.854-2.163,4.392,4.392,0,0,1,1.854-.618,3.359,3.359,0,0,1,1.545.309L772.6,294.8c-.309-.309-.618-.309-1.236-.309a2.677,2.677,0,0,0-2.163,1.236,14.764,14.764,0,0,0-1.854,4.325l-.927,4.943h-1.854Zm16.683,0-1.236-12.358h1.854l.618,5.561.309,3.089v1.545a12.9,12.9,0,0,1,.618-1.854c.309-.309.309-.927.618-1.854l2.78-6.488h2.163l.309,6.179v3.707a35.332,35.332,0,0,1,1.854-4.325l2.471-5.561h2.163L789.9,305.3h-2.163l-.309-7.106v-2.471a10.98,10.98,0,0,1-1.236,2.78l-3.089,7.105h-2.163Zm15.138-4.634a7.691,7.691,0,0,1,2.163-5.87,6.287,6.287,0,0,1,4.634-1.854,4.369,4.369,0,0,1,4.943,4.943,8.552,8.552,0,0,1-.927,4.016,5.452,5.452,0,0,1-2.472,2.78,6.228,6.228,0,0,1-3.4.927,5.82,5.82,0,0,1-2.471-.618c-.927-.309-1.236-.927-1.854-1.854A5.819,5.819,0,0,1,796.388,300.666Zm2.163-.309c0,1.236.309,2.163.927,2.471a2.8,2.8,0,0,0,2.163.927,1.857,1.857,0,0,0,1.236-.309c.309-.309.927-.309,1.236-.927.309-.309.618-.927.927-1.236.309-.618.618-.927.618-1.545a5.256,5.256,0,0,0,.309-2.163,3.041,3.041,0,0,0-.927-2.472,2.8,2.8,0,0,0-2.163-.927,3.919,3.919,0,0,0-1.854.309,5.424,5.424,0,0,0-1.545,1.236,15.059,15.059,0,0,0-.927,2.163,6.032,6.032,0,0,0-.309,2.163Zm10.5,4.943,2.472-12.358h1.854l-.618,2.472a13.432,13.432,0,0,1,1.854-2.163,4.392,4.392,0,0,1,1.854-.618,3.359,3.359,0,0,1,1.545.309l-.927,1.854c-.309-.309-.618-.309-1.236-.309a2.677,2.677,0,0,0-2.163,1.236,14.765,14.765,0,0,0-1.854,4.325l-.927,4.943h-1.854Zm7.723,0,3.4-16.992h2.162l-3.4,16.992Zm13.593-1.854c-1.236,1.236-2.472,2.162-3.707,2.162a3.012,3.012,0,0,1-2.78-1.236,6.624,6.624,0,0,1-1.236-3.707,8.55,8.55,0,0,1,.927-4.016,6.727,6.727,0,0,1,2.162-2.78,4.983,4.983,0,0,1,2.78-.927,3.341,3.341,0,0,1,3.4,2.163l1.236-6.488h2.163l-3.4,16.992h-1.854l.309-1.854Zm-5.561-3.4a4.58,4.58,0,0,0,.309,2.163c.309.618.309.927.927,1.236a2.361,2.361,0,0,0,1.545.618,3.15,3.15,0,0,0,2.471-1.545,7.86,7.86,0,0,0,1.545-4.943,3.6,3.6,0,0,0-.618-2.163,2.671,2.671,0,0,0-1.854-.927c-.618,0-.927,0-1.236.309s-.927.618-1.236,1.236a15.051,15.051,0,0,0-.927,2.163,6.034,6.034,0,0,0-.309,2.163ZM841.8,305.3l2.471-12.358h2.163l-.309,2.163a9.86,9.86,0,0,1,2.163-1.854,4.391,4.391,0,0,1,1.854-.618,3.313,3.313,0,0,1,1.854.618,1.7,1.7,0,0,1,.927,1.545l1.854-1.854a5.726,5.726,0,0,1,2.162-.618,3.6,3.6,0,0,1,2.163.618,2.607,2.607,0,0,1,.618,2.163,5.436,5.436,0,0,1-.309,1.854l-1.545,7.723H855.7l1.545-8.032a13.383,13.383,0,0,1,.309-1.545,1.092,1.092,0,0,0-1.236-1.236,4.392,4.392,0,0,0-1.854.618,3.723,3.723,0,0,0-1.545,1.545,14.351,14.351,0,0,0-.927,2.78l-1.236,5.87H848.6l1.854-8.341c0-.618.309-.927.309-1.236a1.092,1.092,0,0,0-1.236-1.236,4.392,4.392,0,0,0-1.854.618,3.724,3.724,0,0,0-1.545,1.545,14.385,14.385,0,0,0-.927,2.78l-1.236,5.87H841.8Zm20.081-4.634a7.691,7.691,0,0,1,2.163-5.87,6.287,6.287,0,0,1,4.634-1.854,4.369,4.369,0,0,1,4.943,4.943,8.553,8.553,0,0,1-.927,4.016,5.452,5.452,0,0,1-2.472,2.78,6.228,6.228,0,0,1-3.4.927,5.821,5.821,0,0,1-2.472-.618c-.927-.309-1.236-.927-1.854-1.854A5.82,5.82,0,0,1,861.883,300.666Zm2.163-.309c0,1.236.309,2.163.927,2.471a2.8,2.8,0,0,0,2.162.927,1.858,1.858,0,0,0,1.236-.309c.309-.309.927-.309,1.236-.927.309-.309.618-.927.927-1.236.309-.618.618-.927.618-1.545a5.258,5.258,0,0,0,.309-2.163,3.04,3.04,0,0,0-.927-2.472,2.8,2.8,0,0,0-2.162-.927,3.919,3.919,0,0,0-1.854.309,5.425,5.425,0,0,0-1.545,1.236,15.059,15.059,0,0,0-.927,2.163,6.031,6.031,0,0,0-.309,2.163Zm13.593,4.943-1.854-12.358h2.163l.927,6.8c0,.618.309,1.854.309,3.707a28.579,28.579,0,0,1,1.545-3.089l4.016-7.415h2.163L879.8,305.3Zm11.74-14.52.618-2.472h2.162l-.618,2.472Zm-3.089,14.52,2.471-12.358h2.162L888.451,305.3Zm5.252,0,2.472-12.358h1.854l-.309,2.163a9.857,9.857,0,0,1,2.163-1.854,5.727,5.727,0,0,1,2.163-.618,3.508,3.508,0,0,1,2.471.927,2.8,2.8,0,0,1,.927,2.163,6.959,6.959,0,0,1-.309,2.163l-1.545,7.415h-2.163l1.545-7.723a3.36,3.36,0,0,0,.309-1.545,1.135,1.135,0,0,0-.309-.927c-.309-.309-.618-.309-1.236-.309a3.355,3.355,0,0,0-2.781,1.236c-.927.618-1.545,2.163-1.854,4.016l-1.236,5.561h-2.163Zm12.975,1.236,2.163.309c0,.618,0,.927.309.927,0,.309.309.309.618.618a2.315,2.315,0,0,0,1.545.309,3.777,3.777,0,0,0,2.78-.927,6.756,6.756,0,0,0,.927-2.78l.309-.927a4.5,4.5,0,0,1-6.488.309,4.924,4.924,0,0,1-1.236-3.707,7.337,7.337,0,0,1,.927-3.707,4.786,4.786,0,0,1,2.471-2.472,4.983,4.983,0,0,1,2.78-.927,4.034,4.034,0,0,1,3.707,2.163l.309-1.854h1.854l-2.471,11.74c-.309,1.236-.618,2.163-.927,3.089a3.163,3.163,0,0,1-1.854,1.545,7.377,7.377,0,0,1-2.78.618,6.023,6.023,0,0,1-2.471-.309,3.085,3.085,0,0,1-1.545-1.236c-.309-.618-.618-.927-.618-1.545v-.618Zm2.472-6.488c0,.927,0,1.545.309,1.854a4.267,4.267,0,0,0,.927,1.236,2.315,2.315,0,0,0,1.545.309,7.859,7.859,0,0,0,2.163-.618,5.54,5.54,0,0,0,1.545-2.163,9.018,9.018,0,0,0,.618-2.78,3.508,3.508,0,0,0-.927-2.471,3.317,3.317,0,0,0-3.707-.618,2.412,2.412,0,0,0-1.236,1.236l-.927,1.854a4.59,4.59,0,0,0-.309,1.854Z" transform="translate(-619.675 -255.253)"/>
        <path id="Path_8" data-name="Path 8" class="cls-1" d="M613.707,203.935,610,182.618h5.561l1.854,15.447,6.179-15.447h5.561l-10.2,21.317h-5.252Zm13.9,0,4.634-21.317H637.8l-4.634,21.317Zm15.138,0-3.707-21.317H644.6l1.854,15.447,6.179-15.447h5.561L648,203.935h-5.252Zm13.9,0,4.634-21.317h14.829l-.927,4.325h-9.268l-.927,4.016h8.65l-.927,4.325h-8.65l-.927,4.634h9.886l-.927,4.325H656.65Zm19.154,0,4.634-21.317H686l-1.545,7.723,7.723-7.723h6.8l-9.577,9.268,5.561,12.358h-5.87l-3.707-8.341-2.163,2.163-1.236,6.179h-5.561Zm33.365,0,3.707-16.992h-5.87l.927-4.325h17.3l-.927,4.325h-5.87l-3.707,16.992Zm13.284,0,4.634-21.317h7.723a12.555,12.555,0,0,1,6.488,1.545,5.405,5.405,0,0,1,2.163,4.325,6.589,6.589,0,0,1-.927,3.707,5.665,5.665,0,0,1-3.089,2.163,3.084,3.084,0,0,1,1.545,1.236,3.919,3.919,0,0,1,.309,1.854v4.016a1.135,1.135,0,0,0,.309.927c0,.309.309.309.618.618v.618h-6.179v-1.854a6.034,6.034,0,0,1,.309-2.163,10.921,10.921,0,0,1,.309-1.854,2.612,2.612,0,0,0-.618-1.854,5.222,5.222,0,0,0-2.78-.618h-2.472l-1.854,8.032h-5.252Zm8.032-12.358h3.4a6.647,6.647,0,0,0,3.089-.618,2.8,2.8,0,0,0,.927-2.163,2.36,2.36,0,0,0-.618-1.545,6.169,6.169,0,0,0-2.78-.618h-3.089Zm25.951,4.325-1.236-8.341-3.707,8.341Zm-14.211,8.032,10.813-21.317h5.87l4.325,21.317h-5.561l-.618-3.707H749.64l-1.545,3.707Zm26.878,0L765.4,182.618h5.561l1.854,15.447,6.179-15.447h5.561l-10.195,21.317H769.1Zm13.9,0,4.634-21.317h14.829l-.927,4.325h-9.268l-.927,4.016H800l-.927,4.325h-8.65l-.927,4.634h9.886l-.927,4.325H783.005Zm19.154,0,4.634-21.317h5.252L808.338,199.3h10.195l-.927,4.634H802.16Zm18.227-6.8h4.943a3.041,3.041,0,0,0,.927,2.472,3.776,3.776,0,0,0,2.78.927,5.819,5.819,0,0,0,2.471-.618,1.7,1.7,0,0,0,.927-1.545c0-.927-1.236-1.854-3.4-2.78a5.029,5.029,0,0,1-1.854-.927,11.672,11.672,0,0,1-3.707-2.78,6.478,6.478,0,0,1-1.236-3.4,5.558,5.558,0,0,1,2.163-4.634,8.907,8.907,0,0,1,5.87-1.854c2.78,0,4.943.618,6.179,1.854a6.975,6.975,0,0,1,2.472,4.943H833.98a2.8,2.8,0,0,0-.927-2.163,3.329,3.329,0,0,0-2.471-.618,4.465,4.465,0,0,0-2.163.618,1.7,1.7,0,0,0-.927,1.545c0,.618.927,1.545,3.089,2.472a5.031,5.031,0,0,1,1.854.927,14.971,14.971,0,0,1,4.016,2.78,6.477,6.477,0,0,1,1.236,3.4,5.761,5.761,0,0,1-2.163,4.943,9.8,9.8,0,0,1-6.179,1.854,10.137,10.137,0,0,1-6.488-1.854A6.788,6.788,0,0,1,820.387,197.138Zm35.837-4.943h2.162a8.872,8.872,0,0,0,3.707-.618,3.209,3.209,0,0,0,1.236-2.471,2.612,2.612,0,0,0-.618-1.854,7.206,7.206,0,0,0-3.4-.618H857.46Zm-8.032,11.74,4.634-21.317h7.106a12.982,12.982,0,0,1,6.8,1.545,5.788,5.788,0,0,1,2.163,4.943,13.138,13.138,0,0,1-.618,3.4,7.436,7.436,0,0,1-1.854,2.472,5.822,5.822,0,0,1-2.781,1.236,20.456,20.456,0,0,1-4.634.309h-3.089l-1.545,7.723h-5.561Zm25.642,0-3.707-21.317h5.561l1.854,15.447,6.179-15.447h5.561l-10.195,21.317h-5.252Zm17.609,0,3.707-16.992h-5.87l.927-4.325h17.3l-.927,4.325h-5.87L897,203.935Zm8.959,0,1.236-5.252h5.252l-1.236,5.252Zm17.918,0,4.634-21.317h5.252L924.5,199.3h10.2l-.927,4.634H918.32Zm20.081,0,3.707-16.992h-5.87l.927-4.325h17.3l-.927,4.325h-5.87l-3.707,16.992Zm19.772-4.325h2.78a11.106,11.106,0,0,0,3.4-.618,4.867,4.867,0,0,0,2.162-2.163,5.82,5.82,0,0,0,1.236-2.78,10.507,10.507,0,0,0,.309-3.089c0-1.545-.309-2.471-1.236-3.089q-.927-.927-3.707-.927h-2.163l-2.78,12.358Zm-6.488,4.325,4.634-21.317h6.488a16.414,16.414,0,0,1,4.325.309,21.276,21.276,0,0,1,2.472.927,6.062,6.062,0,0,1,2.78,2.78,10.318,10.318,0,0,1,.927,4.634,12.809,12.809,0,0,1-.927,4.943,12.33,12.33,0,0,1-2.163,4.016,11.756,11.756,0,0,1-4.016,2.78,18.049,18.049,0,0,1-6.488.927Zm21.008,0,1.236-5.252h5.252l-1.236,5.252Z" transform="translate(-610 -182)"/>
      </g>
    </g>
  </g>
</svg>
